<svg width="25" height="25" viewBox="0 0 25 25" fill="none" xmlns="http://www.w3.org/2000/svg">
<path d="M17.219 3.9765V2.4165C17.219 2.0065 16.879 1.6665 16.469 1.6665C16.059 1.6665 15.719 2.0065 15.719 2.4165V3.9165H9.21898V2.4165C9.21898 2.0065 8.87898 1.6665 8.46898 1.6665C8.05898 1.6665 7.71898 2.0065 7.71898 2.4165V3.9765C5.01898 4.2265 3.70898 5.8365 3.50898 8.2265C3.48898 8.5165 3.72898 8.7565 4.00898 8.7565H20.929C21.219 8.7565 21.459 8.5065 21.429 8.2265C21.229 5.8365 19.919 4.2265 17.219 3.9765Z" fill="#292D32"/>
<path d="M20.4688 10.2563H4.46875C3.91875 10.2563 3.46875 10.7063 3.46875 11.2563V17.4163C3.46875 20.4163 4.96875 22.4163 8.46875 22.4163H16.4688C19.9688 22.4163 21.4688 20.4163 21.4688 17.4163V11.2563C21.4688 10.7063 21.0187 10.2563 20.4688 10.2563ZM9.67875 18.6263C9.62875 18.6663 9.57875 18.7163 9.52875 18.7463C9.46875 18.7863 9.40875 18.8163 9.34875 18.8363C9.28875 18.8663 9.22875 18.8863 9.16875 18.8963C9.09875 18.9063 9.03875 18.9163 8.96875 18.9163C8.83875 18.9163 8.70875 18.8863 8.58875 18.8363C8.45875 18.7863 8.35875 18.7163 8.25875 18.6263C8.07875 18.4363 7.96875 18.1763 7.96875 17.9163C7.96875 17.6563 8.07875 17.3963 8.25875 17.2063C8.35875 17.1163 8.45875 17.0463 8.58875 16.9963C8.76875 16.9163 8.96875 16.8963 9.16875 16.9363C9.22875 16.9463 9.28875 16.9663 9.34875 16.9963C9.40875 17.0163 9.46875 17.0463 9.52875 17.0863C9.57875 17.1263 9.62875 17.1663 9.67875 17.2063C9.85875 17.3963 9.96875 17.6563 9.96875 17.9163C9.96875 18.1763 9.85875 18.4363 9.67875 18.6263ZM9.67875 15.1263C9.48875 15.3063 9.22875 15.4163 8.96875 15.4163C8.70875 15.4163 8.44875 15.3063 8.25875 15.1263C8.07875 14.9363 7.96875 14.6763 7.96875 14.4163C7.96875 14.1563 8.07875 13.8963 8.25875 13.7063C8.53875 13.4263 8.97875 13.3363 9.34875 13.4963C9.47875 13.5463 9.58875 13.6163 9.67875 13.7063C9.85875 13.8963 9.96875 14.1563 9.96875 14.4163C9.96875 14.6763 9.85875 14.9363 9.67875 15.1263ZM13.1788 18.6263C12.9888 18.8063 12.7288 18.9163 12.4688 18.9163C12.2087 18.9163 11.9487 18.8063 11.7587 18.6263C11.5787 18.4363 11.4688 18.1763 11.4688 17.9163C11.4688 17.6563 11.5787 17.3963 11.7587 17.2063C12.1287 16.8363 12.8088 16.8363 13.1788 17.2063C13.3588 17.3963 13.4688 17.6563 13.4688 17.9163C13.4688 18.1763 13.3588 18.4363 13.1788 18.6263ZM13.1788 15.1263C13.1287 15.1663 13.0788 15.2063 13.0288 15.2463C12.9688 15.2863 12.9088 15.3163 12.8488 15.3363C12.7887 15.3663 12.7288 15.3863 12.6687 15.3963C12.5988 15.4063 12.5387 15.4163 12.4688 15.4163C12.2087 15.4163 11.9487 15.3063 11.7587 15.1263C11.5787 14.9363 11.4688 14.6763 11.4688 14.4163C11.4688 14.1563 11.5787 13.8963 11.7587 13.7063C11.8488 13.6163 11.9587 13.5463 12.0887 13.4963C12.4587 13.3363 12.8988 13.4263 13.1788 13.7063C13.3588 13.8963 13.4688 14.1563 13.4688 14.4163C13.4688 14.6763 13.3588 14.9363 13.1788 15.1263ZM16.6787 18.6263C16.4887 18.8063 16.2288 18.9163 15.9688 18.9163C15.7087 18.9163 15.4487 18.8063 15.2587 18.6263C15.0787 18.4363 14.9688 18.1763 14.9688 17.9163C14.9688 17.6563 15.0787 17.3963 15.2587 17.2063C15.6287 16.8363 16.3087 16.8363 16.6787 17.2063C16.8587 17.3963 16.9688 17.6563 16.9688 17.9163C16.9688 18.1763 16.8587 18.4363 16.6787 18.6263ZM16.6787 15.1263C16.6287 15.1663 16.5787 15.2063 16.5287 15.2463C16.4687 15.2863 16.4088 15.3163 16.3488 15.3363C16.2887 15.3663 16.2288 15.3863 16.1687 15.3963C16.0988 15.4063 16.0288 15.4163 15.9688 15.4163C15.7087 15.4163 15.4487 15.3063 15.2587 15.1263C15.0787 14.9363 14.9688 14.6763 14.9688 14.4163C14.9688 14.1563 15.0787 13.8963 15.2587 13.7063C15.3588 13.6163 15.4587 13.5463 15.5887 13.4963C15.7688 13.4163 15.9688 13.3963 16.1687 13.4363C16.2288 13.4463 16.2887 13.4663 16.3488 13.4963C16.4088 13.5163 16.4687 13.5463 16.5287 13.5863C16.5787 13.6263 16.6287 13.6663 16.6787 13.7063C16.8587 13.8963 16.9688 14.1563 16.9688 14.4163C16.9688 14.6763 16.8587 14.9363 16.6787 15.1263Z" fill="#292D32"/>
</svg>
