<svg width="25" height="25" viewBox="0 0 25 25" fill="none" xmlns="http://www.w3.org/2000/svg">
<path d="M17.9188 23.1665C16.7888 23.1665 15.5987 22.8965 14.3687 22.3765C13.1687 21.8665 11.9588 21.1665 10.7788 20.3165C9.60875 19.4565 8.47875 18.4965 7.40875 17.4465C6.34875 16.3765 5.38875 15.2465 4.53875 14.0865C3.67875 12.8865 2.98875 11.6865 2.49875 10.5265C1.97875 9.2865 1.71875 8.0865 1.71875 6.9565C1.71875 6.1765 1.85875 5.4365 2.12875 4.7465C2.40875 4.0365 2.85875 3.3765 3.46875 2.8065C4.23875 2.0465 5.11875 1.6665 6.05875 1.6665C6.44875 1.6665 6.84875 1.7565 7.18875 1.9165C7.57875 2.0965 7.90875 2.3665 8.14875 2.7265L10.4688 5.9965C10.6788 6.2865 10.8387 6.5665 10.9487 6.8465C11.0787 7.1465 11.1488 7.4465 11.1488 7.7365C11.1488 8.1165 11.0387 8.4865 10.8287 8.8365C10.6788 9.1065 10.4487 9.3965 10.1587 9.6865L9.47875 10.3965C9.48875 10.4265 9.49875 10.4465 9.50875 10.4665C9.62875 10.6765 9.86875 11.0365 10.3287 11.5765C10.8187 12.1365 11.2788 12.6465 11.7388 13.1165C12.3288 13.6965 12.8188 14.1565 13.2788 14.5365C13.8488 15.0165 14.2188 15.2565 14.4388 15.3665L14.4187 15.4165L15.1488 14.6965C15.4588 14.3865 15.7587 14.1565 16.0487 14.0065C16.5988 13.6665 17.2988 13.6065 17.9988 13.8965C18.2588 14.0065 18.5388 14.1565 18.8388 14.3665L22.1588 16.7265C22.5288 16.9765 22.7987 17.2965 22.9587 17.6765C23.1087 18.0565 23.1787 18.4065 23.1787 18.7565C23.1787 19.2365 23.0687 19.7165 22.8587 20.1665C22.6488 20.6165 22.3888 21.0065 22.0588 21.3665C21.4888 21.9965 20.8687 22.4465 20.1488 22.7365C19.4587 23.0165 18.7088 23.1665 17.9188 23.1665ZM6.05875 3.1665C5.50875 3.1665 4.99875 3.4065 4.50875 3.8865C4.04875 4.3165 3.72875 4.7865 3.52875 5.2965C3.31875 5.8165 3.21875 6.3665 3.21875 6.9565C3.21875 7.8865 3.43875 8.8965 3.87875 9.9365C4.32875 10.9965 4.95875 12.0965 5.75875 13.1965C6.55875 14.2965 7.46875 15.3665 8.46875 16.3765C9.46875 17.3665 10.5487 18.2865 11.6587 19.0965C12.7387 19.8865 13.8487 20.5265 14.9487 20.9865C16.6587 21.7165 18.2588 21.8865 19.5788 21.3365C20.0888 21.1265 20.5387 20.8065 20.9487 20.3465C21.1787 20.0965 21.3588 19.8265 21.5088 19.5065C21.6288 19.2565 21.6887 18.9965 21.6887 18.7365C21.6887 18.5765 21.6588 18.4165 21.5788 18.2365C21.5487 18.1765 21.4888 18.0665 21.2987 17.9365L17.9788 15.5765C17.7787 15.4365 17.5987 15.3365 17.4287 15.2665C17.2087 15.1765 17.1187 15.0865 16.7787 15.2965C16.5787 15.3965 16.3987 15.5465 16.1987 15.7465L15.4388 16.4965C15.0487 16.8765 14.4488 16.9665 13.9888 16.7965L13.7188 16.6765C13.3088 16.4565 12.8287 16.1165 12.2987 15.6665C11.8188 15.2565 11.2987 14.7765 10.6687 14.1565C10.1788 13.6565 9.68875 13.1265 9.17875 12.5365C8.70875 11.9865 8.36875 11.5165 8.15875 11.1265L8.03875 10.8265C7.97875 10.5965 7.95875 10.4665 7.95875 10.3265C7.95875 9.9665 8.08875 9.6465 8.33875 9.3965L9.08875 8.6165C9.28875 8.4165 9.43875 8.2265 9.53875 8.0565C9.61875 7.9265 9.64875 7.8165 9.64875 7.7165C9.64875 7.6365 9.61875 7.5165 9.56875 7.3965C9.49875 7.2365 9.38875 7.0565 9.24875 6.8665L6.92875 3.5865C6.82875 3.4465 6.70875 3.3465 6.55875 3.2765C6.39875 3.2065 6.22875 3.1665 6.05875 3.1665ZM14.4187 15.4265L14.2587 16.1065L14.5288 15.4065C14.4788 15.3965 14.4388 15.4065 14.4187 15.4265Z" fill="#292D32"/>
<path d="M18.9688 10.1665C18.5587 10.1665 18.2188 9.8265 18.2188 9.4165C18.2188 9.0565 17.8588 8.3065 17.2588 7.6665C16.6688 7.0365 16.0187 6.6665 15.4688 6.6665C15.0588 6.6665 14.7188 6.3265 14.7188 5.9165C14.7188 5.5065 15.0588 5.1665 15.4688 5.1665C16.4388 5.1665 17.4587 5.6865 18.3487 6.6365C19.1787 7.5265 19.7188 8.6165 19.7188 9.4165C19.7188 9.8265 19.3787 10.1665 18.9688 10.1665Z" fill="#292D32"/>
<path d="M22.4688 10.1665C22.0588 10.1665 21.7188 9.8265 21.7188 9.4165C21.7188 5.9665 18.9187 3.1665 15.4688 3.1665C15.0588 3.1665 14.7188 2.8265 14.7188 2.4165C14.7188 2.0065 15.0588 1.6665 15.4688 1.6665C19.7387 1.6665 23.2188 5.1465 23.2188 9.4165C23.2188 9.8265 22.8787 10.1665 22.4688 10.1665Z" fill="#292D32"/>
</svg>
