<svg width="25" height="25" viewBox="0 0 25 25" fill="none" xmlns="http://www.w3.org/2000/svg">
<path d="M18.0888 11.1666C17.6588 11.1666 17.3188 10.8166 17.3188 10.3966C17.3188 10.0266 16.9487 9.2566 16.3287 8.5866C15.7187 7.9366 15.0488 7.5566 14.4888 7.5566C14.0588 7.5566 13.7188 7.2066 13.7188 6.7866C13.7188 6.3666 14.0688 6.0166 14.4888 6.0166C15.4888 6.0166 16.5387 6.5566 17.4587 7.5266C18.3187 8.4366 18.8687 9.5666 18.8687 10.3866C18.8687 10.8166 18.5188 11.1666 18.0888 11.1666Z" fill="#292D32"/>
<path d="M21.6985 11.1665C21.2685 11.1665 20.9285 10.8165 20.9285 10.3965C20.9285 6.8465 18.0385 3.9665 14.4985 3.9665C14.0685 3.9665 13.7285 3.6165 13.7285 3.1965C13.7285 2.7765 14.0685 2.4165 14.4885 2.4165C18.8885 2.4165 22.4685 5.9965 22.4685 10.3965C22.4685 10.8165 22.1185 11.1665 21.6985 11.1665Z" fill="#292D32"/>
<path d="M11.5188 15.3665L9.66875 17.2165C9.27875 17.6065 8.65875 17.6065 8.25875 17.2265C8.14875 17.1165 8.03875 17.0165 7.92875 16.9065C6.89875 15.8665 5.96875 14.7765 5.13875 13.6365C4.31875 12.4965 3.65875 11.3565 3.17875 10.2265C2.70875 9.0865 2.46875 7.9965 2.46875 6.9565C2.46875 6.2765 2.58875 5.6265 2.82875 5.0265C3.06875 4.4165 3.44875 3.8565 3.97875 3.3565C4.61875 2.7265 5.31875 2.4165 6.05875 2.4165C6.33875 2.4165 6.61875 2.4765 6.86875 2.5965C7.12875 2.7165 7.35875 2.8965 7.53875 3.1565L9.85875 6.4265C10.0388 6.6765 10.1687 6.9065 10.2587 7.1265C10.3488 7.3365 10.3988 7.5465 10.3988 7.7365C10.3988 7.9765 10.3288 8.2165 10.1888 8.4465C10.0588 8.6765 9.86875 8.9165 9.62875 9.1565L8.86875 9.9465C8.75875 10.0565 8.70875 10.1865 8.70875 10.3465C8.70875 10.4265 8.71875 10.4965 8.73875 10.5765C8.76875 10.6565 8.79875 10.7165 8.81875 10.7765C8.99875 11.1065 9.30875 11.5365 9.74875 12.0565C10.1987 12.5765 10.6787 13.1065 11.1987 13.6365C11.2987 13.7365 11.4087 13.8365 11.5087 13.9365C11.9087 14.3265 11.9187 14.9665 11.5188 15.3665Z" fill="#292D32"/>
<path d="M22.4388 18.7465C22.4388 19.0265 22.3888 19.3165 22.2888 19.5965C22.2588 19.6765 22.2288 19.7565 22.1888 19.8365C22.0188 20.1965 21.7988 20.5365 21.5088 20.8565C21.0188 21.3965 20.4788 21.7865 19.8688 22.0365C19.8588 22.0365 19.8488 22.0465 19.8388 22.0465C19.2488 22.2865 18.6088 22.4165 17.9188 22.4165C16.8988 22.4165 15.8088 22.1765 14.6588 21.6865C13.5088 21.1965 12.3588 20.5365 11.2188 19.7065C10.8288 19.4165 10.4388 19.1265 10.0688 18.8165L13.3388 15.5465C13.6188 15.7565 13.8688 15.9165 14.0788 16.0265C14.1288 16.0465 14.1888 16.0765 14.2588 16.1065C14.3388 16.1365 14.4188 16.1465 14.5088 16.1465C14.6788 16.1465 14.8088 16.0865 14.9188 15.9765L15.6788 15.2265C15.9288 14.9765 16.1688 14.7865 16.3988 14.6665C16.6288 14.5265 16.8588 14.4565 17.1088 14.4565C17.2988 14.4565 17.4988 14.4965 17.7188 14.5865C17.9388 14.6765 18.1688 14.8065 18.4188 14.9765L21.7288 17.3265C21.9888 17.5065 22.1688 17.7165 22.2788 17.9665C22.3788 18.2165 22.4388 18.4665 22.4388 18.7465Z" fill="#292D32"/>
</svg>
