<svg width="25" height="25" viewBox="0 0 25 25" fill="none" xmlns="http://www.w3.org/2000/svg">
<path d="M22.4688 8.9365V4.3965C22.4688 2.9865 21.8288 2.4165 20.2388 2.4165H16.1987C14.6087 2.4165 13.9688 2.9865 13.9688 4.3965V8.9265C13.9688 10.3465 14.6087 10.9065 16.1987 10.9065H20.2388C21.8288 10.9165 22.4688 10.3465 22.4688 8.9365Z" fill="#292D32"/>
<path d="M22.4688 20.1865V16.1465C22.4688 14.5565 21.8288 13.9165 20.2388 13.9165H16.1987C14.6087 13.9165 13.9688 14.5565 13.9688 16.1465V20.1865C13.9688 21.7765 14.6087 22.4165 16.1987 22.4165H20.2388C21.8288 22.4165 22.4688 21.7765 22.4688 20.1865Z" fill="#292D32"/>
<path d="M10.9688 8.9365V4.3965C10.9688 2.9865 10.3288 2.4165 8.73875 2.4165H4.69875C3.10875 2.4165 2.46875 2.9865 2.46875 4.3965V8.9265C2.46875 10.3465 3.10875 10.9065 4.69875 10.9065H8.73875C10.3288 10.9165 10.9688 10.3465 10.9688 8.9365Z" fill="#292D32"/>
<path d="M10.9688 20.1865V16.1465C10.9688 14.5565 10.3288 13.9165 8.73875 13.9165H4.69875C3.10875 13.9165 2.46875 14.5565 2.46875 16.1465V20.1865C2.46875 21.7765 3.10875 22.4165 4.69875 22.4165H8.73875C10.3288 22.4165 10.9688 21.7765 10.9688 20.1865Z" fill="#292D32"/>
</svg>
