<svg width="25" height="25" viewBox="0 0 25 25" fill="none" xmlns="http://www.w3.org/2000/svg">
<path d="M21.2987 8.42652L14.7487 3.18652C13.4687 2.16652 11.4687 2.15652 10.1987 3.17652L3.64871 8.42652C2.70871 9.17652 2.13871 10.6765 2.33871 11.8565L3.59871 19.3965C3.88871 21.0865 5.45871 22.4165 7.16871 22.4165H17.7687C19.4587 22.4165 21.0587 21.0565 21.3487 19.3865L22.6087 11.8465C22.7887 10.6765 22.2187 9.17652 21.2987 8.42652ZM13.2187 18.4165C13.2187 18.8265 12.8787 19.1665 12.4687 19.1665C12.0587 19.1665 11.7187 18.8265 11.7187 18.4165V15.4165C11.7187 15.0065 12.0587 14.6665 12.4687 14.6665C12.8787 14.6665 13.2187 15.0065 13.2187 15.4165V18.4165Z" fill="#292D32"/>
</svg>
