<svg width="25" height="25" viewBox="0 0 25 25" fill="none" xmlns="http://www.w3.org/2000/svg">
<path fill-rule="evenodd" clip-rule="evenodd" d="M19.136 7.27587H16.4287V6.35431C16.4287 4.72224 15.1039 3.41671 13.4911 3.41671H11.7056C10.0735 3.39756 8.74874 4.72224 8.74874 6.33514V7.25671H6.04151C4.62068 7.25671 3.46875 8.40877 3.46875 9.82947V12.0759C4.31358 12.3255 5.46548 12.5943 7.00155 12.8055V12.7479C7.00155 11.8646 7.71191 11.1543 8.59514 11.1543H9.49754C10.3808 11.1543 11.0911 11.8647 11.0911 12.7479V13.0934C11.5711 13.1126 12.0703 13.1126 12.5887 13.1126C13.1072 13.1126 13.6063 13.1126 14.0672 13.0934V12.7479C14.0672 11.8646 14.7775 11.1543 15.6608 11.1543H16.5632C17.4464 11.1543 18.1568 11.8647 18.1568 12.7479L18.1566 12.8247C19.6927 12.6326 20.8446 12.3638 21.6894 12.095L21.6896 9.84876C21.7087 8.40876 20.5567 7.27586 19.136 7.27586V7.27587ZM10.9568 7.27587V6.35431C10.9568 5.95104 11.2832 5.62467 11.6864 5.62467H13.4719C13.8752 5.62467 14.2016 5.95106 14.2016 6.35431V7.27587H10.9568Z" fill="black"/>
<path fill-rule="evenodd" clip-rule="evenodd" d="M18.1758 14.6872C18.1758 15.5705 17.4654 16.2808 16.5822 16.2808H15.6798C14.7965 16.2808 14.0862 15.5704 14.0862 14.6872V14.3032C13.6062 14.3224 13.107 14.3224 12.6078 14.3224C12.0893 14.3224 11.5902 14.3224 11.1102 14.3032V14.6872C11.1102 15.5705 10.3998 16.2808 9.51659 16.2808H8.61419C7.73092 16.2808 7.02059 15.5704 7.02059 14.6872V14.0151C5.54216 13.8231 4.39023 13.5927 3.48779 13.3431V18.1623C3.48779 19.5831 4.63986 20.735 6.06056 20.735H19.1549C20.5758 20.735 21.7277 19.583 21.7277 18.1623V13.3242C20.8253 13.5739 19.6732 13.8234 18.1949 13.9963V14.6874L18.1758 14.6872Z" fill="black"/>
<path fill-rule="evenodd" clip-rule="evenodd" d="M9.49764 15.1096C9.728 15.1096 9.92004 14.9175 9.92004 14.6872V12.7671C9.92004 12.5368 9.72798 12.3447 9.49764 12.3447H8.59525C8.36489 12.3447 8.17285 12.5368 8.17285 12.7671V14.6872C8.17285 14.9175 8.3649 15.1096 8.59525 15.1096H9.49764Z" fill="black"/>
<path fill-rule="evenodd" clip-rule="evenodd" d="M16.5821 15.1096C16.8125 15.1096 17.0045 14.9175 17.0045 14.6872V12.7671C17.0045 12.5368 16.8125 12.3447 16.5821 12.3447H15.6797C15.4494 12.3447 15.2573 12.5368 15.2573 12.7671V14.6872C15.2573 14.9175 15.4494 15.1096 15.6797 15.1096H16.5821Z" fill="black"/>
</svg>
