<svg width="25" height="25" viewBox="0 0 25 25" fill="none" xmlns="http://www.w3.org/2000/svg">
<path d="M19.5385 14.6566C19.2485 14.9466 18.7885 14.9466 18.5085 14.6566C18.2185 14.3666 18.2185 13.9066 18.5085 13.6266C20.5085 11.6266 20.5085 8.3766 18.5085 6.3866C16.5085 4.3966 13.2585 4.3866 11.2685 6.3866C9.27853 8.3866 9.26853 11.6366 11.2685 13.6266C11.5585 13.9166 11.5585 14.3766 11.2685 14.6566C10.9785 14.9466 10.5185 14.9466 10.2385 14.6566C7.66854 12.0866 7.66854 7.9066 10.2385 5.3466C12.8085 2.7866 16.9885 2.7766 19.5485 5.3466C22.1085 7.9166 22.1085 12.0866 19.5385 14.6566Z" fill="#292D32"/>
<path d="M5.39897 10.1765C5.68897 9.88648 6.14897 9.88648 6.42897 10.1765C6.71897 10.4665 6.71897 10.9265 6.42897 11.2065C4.42897 13.2065 4.42897 16.4565 6.42897 18.4465C8.42897 20.4365 11.679 20.4465 13.669 18.4465C15.659 16.4465 15.669 13.1965 13.669 11.2065C13.379 10.9165 13.379 10.4565 13.669 10.1765C13.959 9.88648 14.419 9.88648 14.699 10.1765C17.269 12.7465 17.269 16.9265 14.699 19.4865C12.129 22.0465 7.94897 22.0565 5.38897 19.4865C2.82897 16.9165 2.82897 12.7465 5.39897 10.1765Z" fill="#292D32"/>
</svg>
