<svg width="25" height="25" viewBox="0 0 25 25" fill="none" xmlns="http://www.w3.org/2000/svg">
<path d="M18.1426 4.58234L18.0704 8.41802C18.0601 8.94429 18.4006 9.64261 18.834 9.95634L21.3932 11.859C23.034 13.0735 22.7657 14.5612 20.805 15.1684L17.4719 16.1906C16.9146 16.3626 16.3264 16.9598 16.1819 17.5164L15.3873 20.4918C14.7579 22.8398 13.1893 23.0726 11.8891 21.008L10.0728 18.1236C9.74261 17.5973 8.95834 17.2026 8.33917 17.233L4.89248 17.4051C2.42614 17.5265 1.72442 16.1299 3.33425 14.2879L5.3775 11.9602C5.75931 11.525 5.93474 10.7154 5.75931 10.1689L4.70673 6.88982C4.09789 4.96692 5.19175 3.90427 7.14212 4.53174L10.1863 5.51343C10.7023 5.67536 11.4763 5.56403 11.9097 5.2503L15.0881 3.00354C16.8114 1.7992 18.1839 2.50763 18.1426 4.58234Z" fill="#292D32"/>
</svg>
