<svg width="25" height="25" viewBox="0 0 25 25" fill="none" xmlns="http://www.w3.org/2000/svg">
<path d="M17.4688 2.4165H7.46875C4.70875 2.4165 2.46875 4.6465 2.46875 7.3965V13.3765V14.3765C2.46875 17.1265 4.70875 19.3565 7.46875 19.3565H8.96875C9.23875 19.3565 9.59875 19.5365 9.76875 19.7565L11.2688 21.7465C11.9288 22.6265 13.0087 22.6265 13.6687 21.7465L15.1687 19.7565C15.3587 19.5065 15.6587 19.3565 15.9688 19.3565H17.4688C20.2288 19.3565 22.4688 17.1265 22.4688 14.3765V7.3965C22.4688 4.6465 20.2288 2.4165 17.4688 2.4165ZM13.4688 14.1665H7.46875C7.05875 14.1665 6.71875 13.8265 6.71875 13.4165C6.71875 13.0065 7.05875 12.6665 7.46875 12.6665H13.4688C13.8787 12.6665 14.2188 13.0065 14.2188 13.4165C14.2188 13.8265 13.8787 14.1665 13.4688 14.1665ZM17.4688 9.1665H7.46875C7.05875 9.1665 6.71875 8.8265 6.71875 8.4165C6.71875 8.0065 7.05875 7.6665 7.46875 7.6665H17.4688C17.8787 7.6665 18.2188 8.0065 18.2188 8.4165C18.2188 8.8265 17.8787 9.1665 17.4688 9.1665Z" fill="#292D32"/>
</svg>
