<svg width="25" height="25" viewBox="0 0 25 25" fill="none" xmlns="http://www.w3.org/2000/svg">
<path d="M19.5889 9.53637C19.1989 9.53637 18.8889 9.84637 18.8889 10.2364V11.8164C18.8889 15.3564 16.0089 18.2364 12.4689 18.2364C8.92893 18.2364 6.04893 15.3564 6.04893 11.8164V10.2264C6.04893 9.83637 5.73893 9.52637 5.34893 9.52637C4.95893 9.52637 4.64893 9.83637 4.64893 10.2264V11.8064C4.64893 15.8764 7.77893 19.2264 11.7689 19.5864V21.7164C11.7689 22.1064 12.0789 22.4164 12.4689 22.4164C12.8589 22.4164 13.1689 22.1064 13.1689 21.7164V19.5864C17.1489 19.2364 20.2889 15.8764 20.2889 11.8064V10.2264C20.2789 9.84637 19.9689 9.53637 19.5889 9.53637Z" fill="#292D32"/>
<path d="M12.4688 2.4165C10.0288 2.4165 8.04883 4.3965 8.04883 6.8365V11.9565C8.04883 14.3965 10.0288 16.3765 12.4688 16.3765C14.9088 16.3765 16.8888 14.3965 16.8888 11.9565V6.8365C16.8888 4.3965 14.9088 2.4165 12.4688 2.4165ZM13.7788 9.3665C13.7088 9.6265 13.4788 9.7965 13.2188 9.7965C13.1688 9.7965 13.1188 9.7865 13.0688 9.7765C12.6788 9.6665 12.2688 9.6665 11.8788 9.7765C11.5588 9.8665 11.2488 9.6765 11.1688 9.3665C11.0788 9.0565 11.2688 8.7365 11.5788 8.6565C12.1688 8.4965 12.7888 8.4965 13.3788 8.6565C13.6788 8.7365 13.8588 9.0565 13.7788 9.3665ZM14.3088 7.4265C14.2188 7.6665 13.9988 7.8065 13.7588 7.8065C13.6888 7.8065 13.6288 7.7965 13.5588 7.7765C12.8588 7.5165 12.0788 7.5165 11.3788 7.7765C11.0788 7.8865 10.7388 7.7265 10.6288 7.4265C10.5188 7.1265 10.6788 6.7865 10.9788 6.6865C11.9388 6.3365 12.9988 6.3365 13.9588 6.6865C14.2588 6.7965 14.4188 7.1265 14.3088 7.4265Z" fill="#292D32"/>
</svg>
