<svg width="25" height="25" viewBox="0 0 25 25" fill="none" xmlns="http://www.w3.org/2000/svg">
<path d="M21.4587 10.1265C21.1187 9.9865 20.6687 9.9165 20.1087 9.9165H14.8287C13.0887 9.9165 12.4688 10.5365 12.4688 12.2965V20.0365C12.4688 20.6165 12.5388 21.0665 12.6888 21.4165C12.9988 22.1365 13.6587 22.4165 14.8287 22.4165H20.1087C21.8487 22.4165 22.4688 21.7865 22.4688 20.0365V12.2965C22.4688 11.1065 22.1887 10.4365 21.4587 10.1265ZM18.4688 20.1665H16.4688C16.4488 20.1665 16.4188 20.1665 16.3988 20.1565C16.2488 20.1465 16.1187 20.0965 16.0087 19.9965C15.8287 19.8665 15.7188 19.6565 15.7188 19.4165C15.7188 19.0065 16.0587 18.6665 16.4688 18.6665H18.4688C18.8787 18.6665 19.2188 19.0065 19.2188 19.4165C19.2188 19.8265 18.8787 20.1665 18.4688 20.1665Z" fill="#292D32"/>
<path d="M21.4585 6.6065V7.4165C21.4585 7.9665 21.0085 8.4165 20.4585 8.4165H14.8285C12.2685 8.4165 10.9685 9.7265 10.9685 12.2965V21.4165C10.9685 21.9665 10.5185 22.4165 9.96852 22.4165H8.01852C7.61852 22.4165 7.29852 22.0965 7.29852 21.7065C7.29852 21.3065 7.61852 20.9965 8.01852 20.9965H9.96852V17.1665H6.46852C4.24852 17.0565 2.47852 15.2265 2.47852 12.9765V6.6065C2.47852 4.2965 4.35852 2.4165 6.67852 2.4165H17.2685C19.5785 2.4165 21.4585 4.2965 21.4585 6.6065Z" fill="#292D32"/>
</svg>
