<svg width="25" height="25" viewBox="0 0 25 25" fill="none" xmlns="http://www.w3.org/2000/svg">
<path d="M20.659 14.4763L19.529 12.5963C19.279 12.1863 19.059 11.3963 19.059 10.9163V9.04631C19.059 5.41631 16.109 2.46631 12.489 2.46631C8.85895 2.47631 5.90895 5.41631 5.90895 9.04631V10.9063C5.90895 11.3863 5.68895 12.1763 5.44895 12.5863L4.31895 14.4663C3.88895 15.1963 3.78895 16.0263 4.05895 16.7463C4.32895 17.4763 4.93895 18.0563 5.73895 18.3163C6.81895 18.6763 7.90895 18.9363 9.01895 19.1263C9.12895 19.1463 9.23895 19.1563 9.34895 19.1763C9.48895 19.1963 9.63895 19.2163 9.78895 19.2363C10.049 19.2763 10.309 19.3063 10.579 19.3263C11.209 19.3863 11.849 19.4163 12.489 19.4163C13.119 19.4163 13.749 19.3863 14.369 19.3263C14.599 19.3063 14.829 19.2863 15.049 19.2563C15.229 19.2363 15.409 19.2163 15.589 19.1863C15.699 19.1763 15.809 19.1563 15.919 19.1363C17.039 18.9563 18.149 18.6763 19.229 18.3163C19.999 18.0563 20.589 17.4763 20.869 16.7363C21.149 15.9863 21.069 15.1663 20.659 14.4763ZM13.219 10.4163C13.219 10.8363 12.879 11.1763 12.459 11.1763C12.039 11.1763 11.699 10.8363 11.699 10.4163V7.31631C11.699 6.89631 12.039 6.55631 12.459 6.55631C12.879 6.55631 13.219 6.89631 13.219 7.31631V10.4163Z" fill="#292D32"/>
<path d="M15.2989 20.4265C14.8789 21.5865 13.7689 22.4165 12.4689 22.4165C11.6789 22.4165 10.8989 22.0965 10.3489 21.5265C10.0289 21.2265 9.78893 20.8265 9.64893 20.4165C9.77893 20.4365 9.90893 20.4465 10.0489 20.4665C10.2789 20.4965 10.5189 20.5265 10.7589 20.5465C11.3289 20.5965 11.9089 20.6265 12.4889 20.6265C13.0589 20.6265 13.6289 20.5965 14.1889 20.5465C14.3989 20.5265 14.6089 20.5165 14.8089 20.4865C14.9689 20.4665 15.1289 20.4465 15.2989 20.4265Z" fill="#292D32"/>
<circle cx="19.4688" cy="5.4165" r="5" fill="#FF5630"/>
<path d="M15.8348 5.4005C15.8348 4.7965 15.9628 4.3125 16.2188 3.9485C16.4748 3.5765 16.8508 3.3905 17.3468 3.3905C17.8428 3.3905 18.2168 3.5745 18.4688 3.9425C18.7248 4.3065 18.8528 4.7925 18.8528 5.4005C18.8528 6.0165 18.7228 6.5185 18.4628 6.9065C18.2068 7.2905 17.8348 7.4825 17.3468 7.4825C16.8588 7.4825 16.4848 7.2885 16.2248 6.9005C15.9648 6.5125 15.8348 6.0125 15.8348 5.4005ZM18.1928 5.4065C18.1928 4.4505 17.9108 3.9725 17.3468 3.9725C16.7788 3.9725 16.4948 4.4505 16.4948 5.4065C16.4948 6.4025 16.7788 6.9005 17.3468 6.9005C17.9108 6.9005 18.1928 6.4025 18.1928 5.4065ZM22.1828 6.1445C22.1828 6.5365 22.0408 6.8585 21.7568 7.1105C21.4768 7.3585 21.1368 7.4825 20.7368 7.4825C20.4248 7.4825 20.1488 7.4065 19.9088 7.2545C19.6688 7.0985 19.4808 6.8885 19.3448 6.6245L19.7888 6.3125C20.0448 6.7045 20.3548 6.9005 20.7188 6.9005C20.9588 6.9005 21.1528 6.8325 21.3008 6.6965C21.4528 6.5565 21.5288 6.3745 21.5288 6.1505C21.5288 5.9265 21.4488 5.7545 21.2888 5.6345C21.1328 5.5145 20.9088 5.4545 20.6168 5.4545H20.1788V5.2805L21.1028 4.0385H19.6268V3.4565H22.0928V3.6305L21.1328 4.9265C21.4208 4.9745 21.6688 5.1045 21.8768 5.3165C22.0808 5.5245 22.1828 5.8005 22.1828 6.1445Z" fill="white"/>
</svg>
