<svg width="25" height="25" viewBox="0 0 25 25" fill="none" xmlns="http://www.w3.org/2000/svg">
<path d="M9.46875 2.4165C6.84875 2.4165 4.71875 4.5465 4.71875 7.1665C4.71875 9.7365 6.72875 11.8165 9.34875 11.9065C9.42875 11.8965 9.50875 11.8965 9.56875 11.9065C9.58875 11.9065 9.59875 11.9065 9.61875 11.9065C9.62875 11.9065 9.62875 11.9065 9.63875 11.9065C12.1988 11.8165 14.2087 9.7365 14.2188 7.1665C14.2188 4.5465 12.0887 2.4165 9.46875 2.4165Z" fill="#292D32"/>
<path d="M14.5487 14.5664C11.7587 12.7064 7.20871 12.7064 4.39871 14.5664C3.12871 15.4164 2.42871 16.5664 2.42871 17.7964C2.42871 19.0264 3.12871 20.1664 4.38871 21.0064C5.78871 21.9464 7.62871 22.4164 9.46871 22.4164C11.3087 22.4164 13.1487 21.9464 14.5487 21.0064C15.8087 20.1564 16.5087 19.0164 16.5087 17.7764C16.4987 16.5464 15.8087 15.4064 14.5487 14.5664Z" fill="#292D32"/>
<path d="M20.4586 7.7566C20.6186 9.6966 19.2386 11.3966 17.3286 11.6266C17.3186 11.6266 17.3186 11.6266 17.3086 11.6266H17.2786C17.2186 11.6266 17.1586 11.6266 17.1086 11.6466C16.1386 11.6966 15.2486 11.3866 14.5786 10.8166C15.6086 9.8966 16.1986 8.5166 16.0786 7.0166C16.0086 6.2066 15.7286 5.4666 15.3086 4.8366C15.6886 4.6466 16.1286 4.5266 16.5786 4.4866C18.5386 4.3166 20.2886 5.7766 20.4586 7.7566Z" fill="#292D32"/>
<path d="M22.459 17.0064C22.379 17.9764 21.759 18.8164 20.719 19.3864C19.719 19.9364 18.459 20.1964 17.209 20.1664C17.929 19.5164 18.349 18.7064 18.429 17.8464C18.529 16.6064 17.939 15.4164 16.759 14.4664C16.089 13.9364 15.309 13.5164 14.459 13.2064C16.669 12.5664 19.449 12.9964 21.159 14.3764C22.079 15.1164 22.549 16.0464 22.459 17.0064Z" fill="#292D32"/>
</svg>
