<svg width="25" height="25" viewBox="0 0 25 25" fill="none" xmlns="http://www.w3.org/2000/svg">
<path d="M16.6089 3.37655L7.57887 6.37655C1.50887 8.40655 1.50887 11.7165 7.57887 13.7365L10.2589 14.6265L11.1489 17.3065C13.1689 23.3765 16.4889 23.3765 18.5089 17.3065L21.5189 8.28655C22.8589 4.23655 20.6589 2.02655 16.6089 3.37655ZM16.9289 8.75655L13.1289 12.5765C12.9789 12.7265 12.7889 12.7965 12.5989 12.7965C12.4089 12.7965 12.2189 12.7265 12.0689 12.5765C11.7789 12.2865 11.7789 11.8065 12.0689 11.5165L15.8689 7.69655C16.1589 7.40655 16.6389 7.40655 16.9289 7.69655C17.2189 7.98655 17.2189 8.46655 16.9289 8.75655Z" fill="#292D32"/>
</svg>
