<svg width="25" height="25" viewBox="0 0 25 25" fill="none" xmlns="http://www.w3.org/2000/svg">
<path d="M16.6588 2.4165H8.27875C4.63875 2.4165 2.46875 4.5865 2.46875 8.2265V16.5965C2.46875 20.2465 4.63875 22.4165 8.27875 22.4165H16.6488C20.2887 22.4165 22.4587 20.2465 22.4587 16.6065V8.2265C22.4688 4.5865 20.2987 2.4165 16.6588 2.4165ZM8.13875 5.9165C8.13875 5.5065 8.47875 5.1665 8.88875 5.1665C9.29875 5.1665 9.63875 5.5065 9.63875 5.9165V9.8165C9.63875 10.2265 9.29875 10.5665 8.88875 10.5665C8.47875 10.5665 8.13875 10.2265 8.13875 9.8165V5.9165ZM9.99157 16.8478C9.78813 16.9381 9.63875 17.1297 9.63875 17.3523V18.9165C9.63875 19.3265 9.29875 19.6665 8.88875 19.6665C8.47875 19.6665 8.13875 19.3265 8.13875 18.9165V17.3523C8.13875 17.1297 7.98935 16.9382 7.78598 16.8477C6.8315 16.4229 6.16875 15.4746 6.16875 14.3665C6.16875 12.8665 7.38875 11.6365 8.88875 11.6365C10.3888 11.6365 11.6187 12.8565 11.6187 14.3665C11.6187 15.4747 10.9479 16.4231 9.99157 16.8478ZM16.7987 18.9165C16.7987 19.3265 16.4587 19.6665 16.0487 19.6665C15.6388 19.6665 15.2987 19.3265 15.2987 18.9165V15.0165C15.2987 14.6065 15.6388 14.2665 16.0487 14.2665C16.4587 14.2665 16.7987 14.6065 16.7987 15.0165V18.9165ZM16.0487 13.1865C14.5487 13.1865 13.3188 11.9665 13.3188 10.4565C13.3188 9.34835 13.9896 8.39993 14.9459 7.97524C15.1494 7.88489 15.2987 7.69331 15.2987 7.47071V5.9165C15.2987 5.5065 15.6388 5.1665 16.0487 5.1665C16.4587 5.1665 16.7987 5.5065 16.7987 5.9165V7.48071C16.7987 7.70331 16.9482 7.89486 17.1515 7.98536C18.106 8.41011 18.7687 9.35846 18.7687 10.4665C18.7687 11.9665 17.5487 13.1865 16.0487 13.1865Z" fill="#292D32"/>
</svg>
