<svg width="25" height="25" viewBox="0 0 25 25" fill="none" xmlns="http://www.w3.org/2000/svg">
<path d="M20.3541 8.12725C20.2395 7.84626 20.0103 7.61485 19.732 7.49915C19.601 7.44956 19.4537 7.4165 19.3063 7.4165H16.261C15.6225 7.4165 15.115 7.9289 15.115 8.57353C15.115 9.21816 15.6225 9.73055 16.261 9.73055H16.5557L13.1011 13.2182L11.4311 10.7058C11.2347 10.4248 10.94 10.2264 10.5961 10.1934C10.236 10.1603 9.92488 10.276 9.67929 10.5239L4.80029 15.4496C4.35824 15.8958 4.35824 16.6231 4.80029 17.0859C5.02951 17.3173 5.30784 17.4165 5.60254 17.4165C5.89725 17.4165 6.19195 17.3008 6.4048 17.0859L10.3014 13.152L11.9714 15.6644C12.1679 15.9454 12.4626 16.1438 12.8064 16.1768C13.1666 16.2099 13.4777 16.0942 13.7233 15.8463L18.1766 11.3504V11.6479C18.1766 12.2925 18.6842 12.8049 19.3227 12.8049C19.9612 12.8049 20.4688 12.2925 20.4688 11.6479V8.557C20.436 8.40824 20.4196 8.25948 20.3541 8.12725Z" fill="#292D32"/>
</svg>
