<svg width="25" height="25" viewBox="0 0 25 25" fill="none" xmlns="http://www.w3.org/2000/svg">
<path d="M21.6187 6.5865C21.2087 6.3665 20.3487 6.1365 19.1787 6.9565L17.7087 7.9965C17.5988 4.8865 16.2487 3.6665 12.9688 3.6665H6.96875C3.54875 3.6665 2.21875 4.9965 2.21875 8.4165V16.4165C2.21875 18.7165 3.46875 21.1665 6.96875 21.1665H12.9688C16.2487 21.1665 17.5988 19.9465 17.7087 16.8365L19.1787 17.8765C19.7987 18.3165 20.3387 18.4565 20.7687 18.4565C21.1388 18.4565 21.4287 18.3465 21.6187 18.2465C22.0287 18.0365 22.7188 17.4665 22.7188 16.0365V8.7965C22.7188 7.3665 22.0287 6.7965 21.6187 6.5865ZM11.4688 11.7965C10.4388 11.7965 9.58875 10.9565 9.58875 9.9165C9.58875 8.8765 10.4388 8.0365 11.4688 8.0365C12.4987 8.0365 13.3488 8.8765 13.3488 9.9165C13.3488 10.9565 12.4987 11.7965 11.4688 11.7965Z" fill="#292D32"/>
</svg>
