<svg width="13" height="13" viewBox="0 0 13 13" fill="none" xmlns="http://www.w3.org/2000/svg">
<path fill-rule="evenodd" clip-rule="evenodd" d="M7.78784 4.30902C7.85799 4.47308 8.01254 4.58514 8.19045 4.60028L10.3437 4.78856L10.5298 4.83299L10.6924 4.92738L10.821 5.06468L10.9059 5.23633L10.9375 5.42563L10.9136 5.61189L10.8373 5.78352L10.7123 5.9289L9.08713 7.33273C8.95141 7.45035 8.89143 7.63308 8.93209 7.80824L9.41602 9.89204L9.43127 10.0829L9.39213 10.2661L9.30216 10.4301L9.16592 10.5644L8.99615 10.6533L8.81265 10.6891L8.62609 10.6709L8.44919 10.5977L6.59226 9.49123C6.43976 9.39987 6.24965 9.39987 6.09715 9.49123L4.24022 10.5977L4.06332 10.6709L3.87676 10.6891L3.69326 10.6533L3.52349 10.5644L3.38725 10.4301L3.29728 10.2661L3.25814 10.0829L3.27339 9.89204L3.75731 7.80824C3.79798 7.63308 3.738 7.45035 3.60228 7.33273L1.97714 5.9289L1.85209 5.78352L1.77584 5.61189L1.75195 5.42563L1.78348 5.23633L1.86836 5.06468L1.99696 4.92738L2.15963 4.83299L2.34568 4.78856L4.49896 4.60028C4.67687 4.58514 4.83142 4.47308 4.90156 4.30902C5.1481 3.73355 5.68744 2.68761 5.90043 2.19038C5.94923 2.0758 6.03971 1.98493 6.15459 1.93597C6.27659 1.88397 6.41282 1.88397 6.53482 1.93597C6.6497 1.98493 6.74018 2.0758 6.78898 2.19038C7.00197 2.68761 7.5413 3.73355 7.78784 4.30902Z" fill="#FFCE2F"/>
</svg>
