<svg width="64" height="14" viewBox="0 0 64 14" fill="none" xmlns="http://www.w3.org/2000/svg">
<path fill-rule="evenodd" clip-rule="evenodd" d="M8.0354 4.94281C8.10555 5.10686 8.26009 5.21893 8.43801 5.23407L10.5913 5.42235L10.7773 5.46678L10.94 5.56117L11.0686 5.69847L11.1535 5.87012L11.185 6.05942L11.1611 6.24568L11.0849 6.41731L10.9598 6.56268L9.33469 7.96652C9.19897 8.08414 9.13899 8.26687 9.17965 8.44203L9.66358 10.5258L9.67883 10.7166L9.63969 10.8999L9.54972 11.0639L9.41348 11.1982L9.24371 11.2871L9.0602 11.3229L8.87364 11.3047L8.69675 11.2315L6.83982 10.125C6.68732 10.0337 6.49721 10.0337 6.34471 10.125L4.48777 11.2315L4.31088 11.3047L4.12432 11.3229L3.94082 11.2871L3.77105 11.1982L3.63481 11.0639L3.54484 10.8999L3.5057 10.7166L3.52095 10.5258L4.00487 8.44203C4.04554 8.26687 3.98556 8.08414 3.84984 7.96652L2.2247 6.56268L2.09965 6.41731L2.0234 6.24568L1.99951 6.05942L2.03103 5.87012L2.11592 5.69847L2.24452 5.56117L2.40719 5.46678L2.59324 5.42235L4.74652 5.23407C4.92443 5.21893 5.07897 5.10686 5.14912 4.94281C5.39566 4.36734 5.935 3.3214 6.14799 2.82417C6.19679 2.70958 6.28727 2.61872 6.40215 2.56976C6.52415 2.51776 6.66038 2.51776 6.78237 2.56976C6.89726 2.61872 6.98774 2.70958 7.03654 2.82417C7.24953 3.3214 7.78886 4.36734 8.0354 4.94281Z" fill="#FFCE2F"/>
<path fill-rule="evenodd" clip-rule="evenodd" d="M20.7166 4.94281C20.7867 5.10686 20.9412 5.21893 21.1192 5.23407L23.2724 5.42235L23.4585 5.46678L23.6212 5.56117L23.7498 5.69847L23.8346 5.87012L23.8662 6.05942L23.8423 6.24568L23.766 6.41731L23.641 6.56268L22.0158 7.96652C21.8801 8.08414 21.8201 8.26687 21.8608 8.44203L22.3447 10.5258L22.36 10.7166L22.3208 10.8999L22.2309 11.0639L22.0946 11.1982L21.9249 11.2871L21.7414 11.3229L21.5548 11.3047L21.3779 11.2315L19.521 10.125C19.3685 10.0337 19.1784 10.0337 19.0259 10.125L17.1689 11.2315L16.992 11.3047L16.8055 11.3229L16.622 11.2871L16.4522 11.1982L16.316 11.0639L16.226 10.8999L16.1868 10.7166L16.2021 10.5258L16.686 8.44203C16.7267 8.26687 16.6667 8.08414 16.531 7.96652L14.9059 6.56268L14.7808 6.41731L14.7046 6.24568L14.6807 6.05942L14.7122 5.87012L14.7971 5.69847L14.9257 5.56117L15.0883 5.46678L15.2744 5.42235L17.4277 5.23407C17.6056 5.21893 17.7601 5.10686 17.8303 4.94281C18.0768 4.36734 18.6161 3.3214 18.8291 2.82417C18.8779 2.70958 18.9684 2.61872 19.0833 2.56976C19.2053 2.51776 19.3415 2.51776 19.4635 2.56976C19.5784 2.61872 19.6689 2.70958 19.7177 2.82417C19.9307 3.3214 20.47 4.36734 20.7166 4.94281Z" fill="#FFCE2F"/>
<path fill-rule="evenodd" clip-rule="evenodd" d="M33.3977 4.94281C33.4679 5.10686 33.6224 5.21893 33.8003 5.23407L35.9536 5.42235L36.1396 5.46678L36.3023 5.56117L36.4309 5.69847L36.5158 5.87012L36.5473 6.05942L36.5234 6.24568L36.4472 6.41731L36.3221 6.56268L34.697 7.96652C34.5613 8.08414 34.5013 8.26687 34.542 8.44203L35.0259 10.5258L35.0411 10.7166L35.002 10.8999L34.912 11.0639L34.7758 11.1982L34.606 11.2871L34.4225 11.3229L34.2359 11.3047L34.0591 11.2315L32.2021 10.125C32.0496 10.0337 31.8595 10.0337 31.707 10.125L29.8501 11.2315L29.6732 11.3047L29.4866 11.3229L29.3031 11.2871L29.1333 11.1982L28.9971 11.0639L28.9071 10.8999L28.868 10.7166L28.8832 10.5258L29.3672 8.44203C29.4078 8.26687 29.3479 8.08414 29.2121 7.96652L27.587 6.56268L27.462 6.41731L27.3857 6.24568L27.3618 6.05942L27.3933 5.87012L27.4782 5.69847L27.6068 5.56117L27.7695 5.46678L27.9555 5.42235L30.1088 5.23407C30.2867 5.21893 30.4413 5.10686 30.5114 4.94281C30.758 4.36734 31.2973 3.3214 31.5103 2.82417C31.5591 2.70958 31.6496 2.61872 31.7645 2.56976C31.8865 2.51776 32.0227 2.51776 32.1447 2.56976C32.2596 2.61872 32.35 2.70958 32.3988 2.82417C32.6118 3.3214 33.1512 4.36734 33.3977 4.94281Z" fill="#FFCE2F"/>
<path fill-rule="evenodd" clip-rule="evenodd" d="M46.0784 4.94281C46.1485 5.10686 46.3031 5.21893 46.481 5.23407L48.6343 5.42235L48.8203 5.46678L48.983 5.56117L49.1116 5.69847L49.1965 5.87012L49.228 6.05942L49.2041 6.24568L49.1278 6.41731L49.0028 6.56268L47.3777 7.96652C47.2419 8.08414 47.182 8.26687 47.2226 8.44203L47.7065 10.5258L47.7218 10.7166L47.6827 10.8999L47.5927 11.0639L47.4564 11.1982L47.2867 11.2871L47.1032 11.3229L46.9166 11.3047L46.7397 11.2315L44.8828 10.125C44.7303 10.0337 44.5402 10.0337 44.3877 10.125L42.5307 11.2315L42.3538 11.3047L42.1673 11.3229L41.9838 11.2871L41.814 11.1982L41.6778 11.0639L41.5878 10.8999L41.5487 10.7166L41.5639 10.5258L42.0478 8.44203C42.0885 8.26687 42.0285 8.08414 41.8928 7.96652L40.2677 6.56268L40.1426 6.41731L40.0664 6.24568L40.0425 6.05942L40.074 5.87012L40.1589 5.69847L40.2875 5.56117L40.4502 5.46678L40.6362 5.42235L42.7895 5.23407C42.9674 5.21893 43.1219 5.10686 43.1921 4.94281C43.4386 4.36734 43.978 3.3214 44.191 2.82417C44.2398 2.70958 44.3302 2.61872 44.4451 2.56976C44.5671 2.51776 44.7033 2.51776 44.8253 2.56976C44.9402 2.61872 45.0307 2.70958 45.0795 2.82417C45.2925 3.3214 45.8318 4.36734 46.0784 4.94281Z" fill="#FFCE2F"/>
<path fill-rule="evenodd" clip-rule="evenodd" d="M58.7595 4.94281C58.8297 5.10686 58.9842 5.21893 59.1621 5.23407L61.3154 5.42235L61.5015 5.46678L61.6641 5.56117L61.7927 5.69847L61.8776 5.87012L61.9091 6.05942L61.8852 6.24568L61.809 6.41731L61.6839 6.56268L60.0588 7.96652C59.9231 8.08414 59.8631 8.26687 59.9038 8.44203L60.3877 10.5258L60.403 10.7166L60.3638 10.8999L60.2738 11.0639L60.1376 11.1982L59.9678 11.2871L59.7843 11.3229L59.5978 11.3047L59.4209 11.2315L57.5639 10.125C57.4114 10.0337 57.2213 10.0337 57.0688 10.125L55.2119 11.2315L55.035 11.3047L54.8484 11.3229L54.6649 11.2871L54.4952 11.1982L54.3589 11.0639L54.269 10.8999L54.2298 10.7166L54.2451 10.5258L54.729 8.44203C54.7697 8.26687 54.7097 8.08414 54.574 7.96652L52.9488 6.56268L52.8238 6.41731L52.7475 6.24568L52.7236 6.05942L52.7552 5.87012L52.84 5.69847L52.9686 5.56117L53.1313 5.46678L53.3174 5.42235L55.4706 5.23407C55.6486 5.21893 55.8031 5.10686 55.8732 4.94281C56.1198 4.36734 56.6591 3.3214 56.8721 2.82417C56.9209 2.70958 57.0114 2.61872 57.1263 2.56976C57.2483 2.51776 57.3845 2.51776 57.5065 2.56976C57.6214 2.61872 57.7119 2.70958 57.7607 2.82417C57.9736 3.3214 58.513 4.36734 58.7595 4.94281Z" fill="#FFCE2F"/>
</svg>
