<svg width="34" height="33" viewBox="0 0 34 33" fill="none" xmlns="http://www.w3.org/2000/svg">
<path d="M12.8438 2.77441C9.24125 2.77441 6.3125 5.61441 6.3125 9.10775C6.3125 12.5344 9.07625 15.3077 12.6788 15.4277C12.7888 15.4144 12.8988 15.4144 12.9813 15.4277C13.0088 15.4277 13.0225 15.4277 13.05 15.4277C13.0637 15.4277 13.0638 15.4277 13.0775 15.4277C16.5975 15.3077 19.3613 12.5344 19.375 9.10775C19.375 5.61441 16.4462 2.77441 12.8438 2.77441Z" fill="white"/>
<path d="M19.8286 18.9747C15.9923 16.4947 9.73607 16.4947 5.87232 18.9747C4.12607 20.1081 3.16357 21.6414 3.16357 23.2814C3.16357 24.9214 4.12607 26.4414 5.85857 27.5614C7.78357 28.8147 10.3136 29.4414 12.8436 29.4414C15.3736 29.4414 17.9036 28.8147 19.8286 27.5614C21.5611 26.4281 22.5236 24.9081 22.5236 23.2547C22.5098 21.6147 21.5611 20.0947 19.8286 18.9747Z" fill="white"/>
<path d="M27.9551 9.89455C28.1751 12.4812 26.2776 14.7479 23.6514 15.0545C23.6376 15.0545 23.6376 15.0545 23.6239 15.0545H23.5826C23.5001 15.0545 23.4176 15.0545 23.3489 15.0812C22.0151 15.1479 20.7914 14.7345 19.8701 13.9745C21.2864 12.7479 22.0976 10.9079 21.9326 8.90788C21.8364 7.82788 21.4514 6.84121 20.8739 6.00121C21.3964 5.74788 22.0014 5.58788 22.6201 5.53455C25.3151 5.30788 27.7214 7.25455 27.9551 9.89455Z" fill="white"/>
<path d="M30.7051 22.2278C30.5951 23.5211 29.7426 24.6411 28.3126 25.4011C26.9376 26.1345 25.2051 26.4811 23.4863 26.4411C24.4763 25.5745 25.0538 24.4945 25.1638 23.3478C25.3013 21.6945 24.4901 20.1078 22.8676 18.8411C21.9463 18.1345 20.8738 17.5745 19.7051 17.1611C22.7438 16.3078 26.5663 16.8811 28.9176 18.7211C30.1826 19.7078 30.8288 20.9478 30.7051 22.2278Z" fill="white"/>
</svg>
