<svg width="33" height="33" viewBox="0 0 33 33" fill="none" xmlns="http://www.w3.org/2000/svg">
<path d="M23.604 2.82861H10.2707C6.59067 2.82861 3.604 5.80195 3.604 9.46861V17.4419V18.7753C3.604 22.4419 6.59067 25.4153 10.2707 25.4153H12.2707C12.6307 25.4153 13.1107 25.6553 13.3373 25.9486L15.3373 28.6019C16.2173 29.7753 17.6573 29.7753 18.5373 28.6019L20.5373 25.9486C20.7907 25.6153 21.1907 25.4153 21.604 25.4153H23.604C27.284 25.4153 30.2707 22.4419 30.2707 18.7753V9.46861C30.2707 5.80195 27.284 2.82861 23.604 2.82861ZM18.2707 18.4953H10.2707C9.724 18.4953 9.27067 18.0419 9.27067 17.4953C9.27067 16.9486 9.724 16.4953 10.2707 16.4953H18.2707C18.8173 16.4953 19.2707 16.9486 19.2707 17.4953C19.2707 18.0419 18.8173 18.4953 18.2707 18.4953ZM23.604 11.8286H10.2707C9.724 11.8286 9.27067 11.3753 9.27067 10.8286C9.27067 10.2819 9.724 9.82861 10.2707 9.82861H23.604C24.1507 9.82861 24.604 10.2819 24.604 10.8286C24.604 11.3753 24.1507 11.8286 23.604 11.8286Z" fill="white"/>
</svg>
