<svg width="37" height="37" viewBox="0 0 37 37" fill="none" xmlns="http://www.w3.org/2000/svg">
<path d="M31.7137 12.3489L21.8887 4.27061C19.9687 2.69811 16.9687 2.68269 15.0637 4.25519L5.23869 12.3489C3.82869 13.5052 2.97369 15.8177 3.27369 17.6369L5.16369 29.261C5.59869 31.8664 7.95369 33.9169 10.5187 33.9169H26.4187C28.9537 33.9169 31.3537 31.8202 31.7887 29.2456L33.6787 17.6214C33.9487 15.8177 33.0937 13.5052 31.7137 12.3489ZM19.5937 27.7502C19.5937 28.3823 19.0837 28.9064 18.4687 28.9064C17.8537 28.9064 17.3437 28.3823 17.3437 27.7502V23.1252C17.3437 22.4931 17.8537 21.9689 18.4687 21.9689C19.0837 21.9689 19.5937 22.4931 19.5937 23.1252V27.7502Z" fill="white"/>
</svg>
