<svg width="169" height="64" viewBox="0 0 169 64" fill="none" xmlns="http://www.w3.org/2000/svg">
<circle cx="17.3532" cy="44.2277" r="16.4152" fill="#FFD23D"/>
<circle cx="47.1371" cy="30.0384" r="10.7894" fill="#3570EA"/>
<circle cx="25.5448" cy="17.1126" r="8.22395" fill="#ECECEC"/>
<circle cx="41.7424" cy="51.8009" r="5.3947" fill="#E35148"/>
<path d="M82.7797 61.0012C82.7797 61.0012 82.6646 60.9858 82.4346 60.9552C82.2045 60.9245 81.9131 60.8938 81.5604 60.8631C81.2076 60.8325 80.8395 60.8018 80.4561 60.7711C80.088 60.7404 79.7583 60.7251 79.4669 60.7251C79.0834 60.7251 78.6847 60.7481 78.2706 60.7941C77.8718 60.8401 77.5267 60.8861 77.2353 60.9321C76.9592 60.9782 76.8212 61.0012 76.8212 61.0012L76.9592 59.9429C77.496 59.8355 77.8871 59.7052 78.1325 59.5518C78.3933 59.3984 78.562 59.1377 78.6386 58.7696C78.7153 58.4015 78.7537 57.8494 78.7537 57.1132V53.7314H75.6939L75.5329 53.5703L75.6939 52.8341H78.7537L78.7767 48.302C78.7767 47.8112 78.723 47.4815 78.6156 47.3128C78.5083 47.1441 78.2782 47.0597 77.9255 47.0597C77.7874 47.0597 77.6187 47.0674 77.4193 47.0827C77.2353 47.0981 77.1433 47.1057 77.1433 47.1057L77.0973 47.0137L77.2583 46.0014C77.2583 46.0014 77.3427 46.0091 77.5114 46.0245C77.6801 46.0245 77.8871 46.0321 78.1325 46.0475C78.3933 46.0475 78.6617 46.0551 78.9377 46.0705C79.2138 46.0705 79.4592 46.0705 79.6739 46.0705C79.9346 46.0705 80.2567 46.0705 80.6401 46.0705C81.0389 46.0551 81.43 46.0398 81.8134 46.0245C82.1969 46.0091 82.5189 46.0014 82.7797 46.0014C83.0404 45.9861 83.1708 45.9784 83.1708 45.9784C84.6431 45.9784 85.9468 46.2775 87.0817 46.8757C88.232 47.4585 89.1292 48.2713 89.7734 49.3143C90.4176 50.3419 90.7396 51.5228 90.7396 52.8571C90.7396 54.0074 90.5326 55.0734 90.1185 56.0549C89.7197 57.0365 89.1523 57.9031 88.4161 58.6546C87.6952 59.3908 86.8517 59.9659 85.8854 60.38C84.9345 60.7941 83.8993 61.0012 82.7797 61.0012ZM80.5481 52.8341H84.4591L84.5741 52.9952L84.4361 53.7314H80.5251L80.4101 57.7114C80.4101 58.2635 80.4868 58.6929 80.6401 58.9997C80.8089 59.3064 81.1003 59.5211 81.5144 59.6438C81.9438 59.7665 82.5419 59.8279 83.3088 59.8279C84.9652 59.8279 86.2689 59.2604 87.2198 58.1255C88.1707 56.9752 88.6461 55.4031 88.6461 53.4093C88.6461 52.0596 88.3701 50.917 87.8179 49.9814C87.2811 49.0459 86.4836 48.3327 85.4253 47.8419C84.3824 47.3511 83.1018 47.1057 81.5834 47.1057C81.2613 47.1057 81.0466 47.1364 80.9392 47.1977C80.8319 47.2591 80.7705 47.3971 80.7552 47.6118L80.5481 52.8341ZM92.7386 61.0012L92.8306 60.0579C93.2908 59.9352 93.6205 59.7589 93.8199 59.5288C94.0193 59.2834 94.119 58.9613 94.119 58.5626V52.7191C94.119 52.2897 94.05 51.9753 93.9119 51.7759C93.7739 51.5765 93.5592 51.4768 93.2678 51.4768C93.1451 51.4768 93.0147 51.4921 92.8767 51.5228C92.754 51.5535 92.6926 51.5688 92.6926 51.5688L92.7846 50.7176C93.1681 50.6563 93.5515 50.5873 93.9349 50.5106C94.3337 50.4339 94.6941 50.3649 95.0162 50.3035C95.3383 50.2268 95.599 50.1655 95.7984 50.1195C95.9978 50.0735 96.0975 50.0505 96.0975 50.0505L96.2125 50.3265C96.1511 50.4799 96.0821 50.825 96.0054 51.3618C95.9441 51.8832 95.8904 52.5274 95.8444 53.2943C95.7984 54.0458 95.76 54.874 95.7294 55.7789C95.6987 56.6684 95.6834 57.5656 95.6834 58.4705C95.6834 58.9153 95.7447 59.2451 95.8674 59.4598C95.9901 59.6592 96.1972 59.7589 96.4886 59.7589C96.6266 59.7589 96.7953 59.7512 96.9947 59.7359C97.1941 59.7205 97.2938 59.7128 97.2938 59.7128L97.3398 59.8049L97.1557 60.7941C97.1557 60.7941 97.0867 60.7864 96.9487 60.7711C96.826 60.7711 96.6573 60.7634 96.4425 60.7481C96.2432 60.7481 96.0208 60.7404 95.7754 60.7251C95.5453 60.7251 95.3229 60.7251 95.1082 60.7251C94.7861 60.7251 94.441 60.7481 94.073 60.7941C93.7049 60.8401 93.3905 60.8861 93.1297 60.9321C92.869 60.9782 92.7386 61.0012 92.7386 61.0012ZM94.7631 47.3358C94.3797 47.3358 94.096 47.2131 93.9119 46.9677C93.7279 46.7223 93.6358 46.4539 93.6358 46.1625C93.6358 45.7944 93.7662 45.48 94.0269 45.2193C94.2877 44.9432 94.6098 44.8052 94.9932 44.8052C95.3613 44.8052 95.6373 44.9278 95.8214 45.1732C96.0208 45.4033 96.1205 45.6717 96.1205 45.9784C96.1205 46.3465 95.9901 46.6686 95.7294 46.9447C95.484 47.2054 95.1619 47.3358 94.7631 47.3358ZM110.234 61.0012C110.234 61.0012 110.119 60.9858 109.889 60.9552C109.659 60.9245 109.367 60.8938 109.014 60.8631C108.662 60.8325 108.294 60.8018 107.91 60.7711C107.542 60.7404 107.212 60.7251 106.921 60.7251C106.537 60.7251 106.139 60.7481 105.725 60.7941C105.326 60.8401 104.981 60.8861 104.689 60.9321C104.413 60.9782 104.275 61.0012 104.275 61.0012L104.413 59.9429C104.95 59.8355 105.341 59.7052 105.587 59.5518C105.847 59.3984 106.016 59.1377 106.093 58.7696C106.169 58.4015 106.208 57.8494 106.208 57.1132V53.7314H103.148L102.987 53.5703L103.148 52.8341H106.208L106.231 48.302C106.231 47.8112 106.177 47.4815 106.07 47.3128C105.962 47.1441 105.732 47.0597 105.38 47.0597C105.242 47.0597 105.073 47.0674 104.873 47.0827C104.689 47.0981 104.597 47.1057 104.597 47.1057L104.551 47.0137L104.712 46.0014C104.712 46.0014 104.797 46.0091 104.965 46.0245C105.134 46.0245 105.341 46.0321 105.587 46.0475C105.847 46.0475 106.116 46.0551 106.392 46.0705C106.668 46.0705 106.913 46.0705 107.128 46.0705C107.389 46.0705 107.711 46.0705 108.094 46.0705C108.493 46.0551 108.884 46.0398 109.268 46.0245C109.651 46.0091 109.973 46.0014 110.234 46.0014C110.494 45.9861 110.625 45.9784 110.625 45.9784C112.097 45.9784 113.401 46.2775 114.536 46.8757C115.686 47.4585 116.583 48.2713 117.227 49.3143C117.872 50.3419 118.194 51.5228 118.194 52.8571C118.194 54.0074 117.987 55.0734 117.573 56.0549C117.174 57.0365 116.606 57.9031 115.87 58.6546C115.149 59.3908 114.306 59.9659 113.34 60.38C112.389 60.7941 111.353 61.0012 110.234 61.0012ZM108.002 52.8341H111.913L112.028 52.9952L111.89 53.7314H107.979L107.864 57.7114C107.864 58.2635 107.941 58.6929 108.094 58.9997C108.263 59.3064 108.554 59.5211 108.968 59.6438C109.398 59.7665 109.996 59.8279 110.763 59.8279C112.419 59.8279 113.723 59.2604 114.674 58.1255C115.625 56.9752 116.1 55.4031 116.1 53.4093C116.1 52.0596 115.824 50.917 115.272 49.9814C114.735 49.0459 113.938 48.3327 112.879 47.8419C111.836 47.3511 110.556 47.1057 109.037 47.1057C108.715 47.1057 108.501 47.1364 108.393 47.1977C108.286 47.2591 108.225 47.3971 108.209 47.6118L108.002 52.8341ZM127.739 61.0012C127.125 61.0012 126.642 60.8478 126.289 60.5411C125.952 60.219 125.752 59.7512 125.691 59.1377L125.599 59.1147C125.231 59.4828 124.878 59.8049 124.541 60.0809C124.219 60.3417 123.927 60.5487 123.667 60.7021C123.421 60.8401 123.222 60.9091 123.068 60.9091C122.501 60.9091 121.995 60.7864 121.55 60.5411C121.105 60.2957 120.752 59.9582 120.492 59.5288C120.246 59.0994 120.124 58.6086 120.124 58.0564C120.124 57.6117 120.231 57.2206 120.446 56.8831C120.676 56.5457 120.975 56.3233 121.343 56.216L125.714 55.0197L125.737 54.0074C125.737 53.2406 125.561 52.6424 125.208 52.213C124.855 51.7835 124.357 51.5688 123.713 51.5688C123.283 51.5688 122.831 51.6685 122.355 51.8679C121.88 52.0673 121.412 52.351 120.952 52.7191L120.837 52.6501L120.561 51.6609C120.96 51.4308 121.404 51.1931 121.895 50.9477C122.386 50.6869 122.854 50.4722 123.298 50.3035C123.743 50.1348 124.081 50.0505 124.311 50.0505C124.986 50.0505 125.561 50.1731 126.036 50.4185C126.512 50.6486 126.872 50.986 127.117 51.4308C127.378 51.8602 127.509 52.3894 127.509 53.0182C127.509 53.2176 127.486 53.5396 127.439 53.9844C127.409 54.4292 127.363 54.9277 127.301 55.4798C127.24 56.0166 127.186 56.5381 127.14 57.0442C127.11 57.5503 127.094 57.9721 127.094 58.3095C127.094 58.6469 127.179 58.9076 127.347 59.0917C127.516 59.2757 127.746 59.3678 128.038 59.3678C128.298 59.3678 128.559 59.3064 128.82 59.1837C129.081 59.0457 129.28 58.9153 129.418 58.7926L129.74 59.1607C129.617 59.3601 129.449 59.5901 129.234 59.8509C129.035 60.0963 128.804 60.3263 128.544 60.5411C128.298 60.7558 128.03 60.9091 127.739 61.0012ZM123.46 59.3448C123.751 59.3448 124.088 59.2451 124.472 59.0457C124.871 58.831 125.231 58.5626 125.553 58.2405L125.668 55.8939L122.539 56.8371C122.094 56.9752 121.872 57.2972 121.872 57.8034C121.872 58.2328 122.018 58.6009 122.309 58.9076C122.616 59.1991 122.999 59.3448 123.46 59.3448ZM121.389 48.6011L121.182 48.5781L120.86 48.072C121.228 47.6732 121.596 47.2744 121.964 46.8757C122.348 46.4616 122.693 46.0781 122.999 45.7254C123.321 45.3726 123.575 45.0889 123.759 44.8742C123.943 44.6594 124.035 44.5521 124.035 44.5521H124.357C124.357 44.5521 124.449 44.6594 124.633 44.8742C124.817 45.0889 125.062 45.3726 125.369 45.7254C125.691 46.0781 126.036 46.4616 126.404 46.8757C126.788 47.2744 127.163 47.6732 127.532 48.072L127.209 48.5781L127.002 48.6011C126.466 48.1256 125.936 47.6962 125.415 47.3128C124.909 46.9293 124.502 46.6149 124.196 46.3695C123.874 46.6149 123.46 46.9293 122.953 47.3128C122.463 47.6809 121.941 48.1103 121.389 48.6011ZM131.967 52.7421C131.967 52.3434 131.898 52.0366 131.76 51.8219C131.622 51.6072 131.408 51.4998 131.116 51.4998C130.994 51.4998 130.863 51.5151 130.725 51.5458C130.602 51.5765 130.541 51.5918 130.541 51.5918L130.633 50.7406C130.986 50.6793 131.354 50.6103 131.737 50.5336C132.121 50.4569 132.474 50.3802 132.796 50.3035C133.133 50.2268 133.402 50.1655 133.601 50.1195C133.816 50.0735 133.923 50.0505 133.923 50.0505L134.061 50.3265C133.984 50.5259 133.908 50.871 133.831 51.3618C133.77 51.8372 133.708 52.397 133.647 53.0412C133.586 53.6854 133.54 54.3679 133.509 55.0887C133.478 55.7942 133.463 56.4844 133.463 57.1592C133.463 58.6623 134.076 59.4138 135.303 59.4138C135.84 59.4138 136.339 59.2681 136.799 58.9767C137.274 58.6699 137.704 58.3785 138.087 58.1024V52.7651C138.087 52.305 138.003 51.9829 137.834 51.7989C137.665 51.6148 137.366 51.5228 136.937 51.5228C136.875 51.5228 136.768 51.5305 136.615 51.5458C136.461 51.5458 136.385 51.5458 136.385 51.5458L136.477 50.7176C136.891 50.6563 137.305 50.5873 137.719 50.5106C138.133 50.4339 138.509 50.3649 138.846 50.3035C139.199 50.2268 139.483 50.1655 139.697 50.1195C139.912 50.0735 140.019 50.0505 140.019 50.0505L140.158 50.3265C140.065 50.5566 139.981 51.0704 139.904 51.8679C139.828 52.6654 139.766 53.6317 139.72 54.7666C139.674 55.9016 139.651 57.0825 139.651 58.3095C139.651 58.6469 139.736 58.9076 139.904 59.0917C140.073 59.2757 140.303 59.3678 140.595 59.3678C140.84 59.3678 141.062 59.3217 141.262 59.2297C141.477 59.1224 141.645 59.0227 141.768 58.9307C141.906 58.8386 141.975 58.7926 141.975 58.7926L142.297 59.1607C142.297 59.1607 142.228 59.2527 142.09 59.4368C141.967 59.6208 141.799 59.8355 141.584 60.0809C141.384 60.3263 141.17 60.5411 140.94 60.7251C140.71 60.9091 140.495 61.0012 140.296 61.0012C139.053 61.0012 138.371 60.38 138.248 59.1377L138.133 59.0917C137.397 59.6592 136.73 60.1193 136.132 60.472C135.549 60.8248 135.15 61.0012 134.935 61.0012C133.954 61.0012 133.194 60.7711 132.658 60.311C132.136 59.8509 131.875 59.1914 131.875 58.3325L131.967 52.7421ZM149.596 56.147L149.389 56.0549L148.837 53.2943L148.906 52.9722L151.643 51.2237C151.996 50.9783 152.303 50.6946 152.564 50.3725C152.824 50.0505 152.955 49.6747 152.955 49.2453C152.955 48.3097 152.525 47.6118 151.666 47.1517C150.807 46.6763 149.68 46.4002 148.284 46.3235L148.238 46.0705L148.998 44.8512L149.32 44.7591C150.271 44.7898 151.129 44.9739 151.896 45.3113C152.679 45.6487 153.3 46.1011 153.76 46.6686C154.235 47.2208 154.473 47.8496 154.473 48.5551C154.473 49.1992 154.358 49.7514 154.128 50.2115C153.898 50.6563 153.591 51.0474 153.208 51.3848C152.824 51.7069 152.41 52.0136 151.965 52.305C151.521 52.5811 151.083 52.8725 150.654 53.1792L150.585 53.3863L151.068 55.5718L150.999 55.7559L149.596 56.147ZM150.194 61.0012C149.764 61.0012 149.442 60.8708 149.228 60.6101C149.013 60.334 148.906 60.0273 148.906 59.6898C148.906 59.2911 149.036 58.9537 149.297 58.6776C149.557 58.4015 149.903 58.2635 150.332 58.2635C150.761 58.2635 151.083 58.3939 151.298 58.6546C151.528 58.9153 151.643 59.2221 151.643 59.5748C151.643 59.9582 151.513 60.2957 151.252 60.5871C150.991 60.8631 150.639 61.0012 150.194 61.0012Z" fill="#141212"/>
<path d="M72.0798 38.0813C69.875 38.0813 67.9699 37.6259 66.3643 36.7153C64.7826 35.8047 63.5605 34.4986 62.6977 32.7971C61.835 31.0957 61.4037 29.0827 61.4037 26.7581C61.4037 24.841 61.6912 23.1156 62.2664 21.5819C62.8655 20.0242 63.7162 18.6942 64.8186 17.5918C65.9209 16.4894 67.239 15.6387 68.7727 15.0396C70.3304 14.4405 72.0678 14.141 73.9849 14.141C74.7278 14.141 75.4947 14.1889 76.2855 14.2847C77.1003 14.3806 77.8432 14.4884 78.5142 14.6083C79.1852 14.7281 79.7363 14.8359 80.1677 14.9318C80.599 15.0037 80.8147 15.0396 80.8147 15.0396L81.0304 15.5069C81.0304 15.5069 80.9585 15.8065 80.8147 16.4056C80.6949 17.0047 80.5631 17.8195 80.4193 18.8499C80.2755 19.8564 80.1557 20.9947 80.0599 22.2648L76.6449 22.4805C76.6449 22.4805 76.6569 22.2888 76.6809 21.9054C76.7049 21.498 76.7168 21.0666 76.7168 20.6113C76.7168 19.5329 76.3933 18.7541 75.7463 18.2748C75.0992 17.7955 74.0808 17.5559 72.6908 17.5559C71.4447 17.5559 70.3783 17.8554 69.4916 18.4545C68.6289 19.0536 67.9699 19.9403 67.5146 21.1146C67.0832 22.2888 66.8675 23.7506 66.8675 25.5C66.8675 27.4651 67.1072 29.1426 67.5864 30.5325C68.0897 31.9224 68.7966 32.9889 69.7073 33.7317C70.6179 34.4507 71.6963 34.8101 72.9425 34.8101C74.2605 34.8101 75.291 34.4147 76.0339 33.6239C76.7767 32.8331 77.292 31.551 77.5796 29.7776L81.0304 29.562C81.0304 29.562 80.9945 29.7657 80.9226 30.173C80.8746 30.5804 80.8027 31.1196 80.7069 31.7906C80.635 32.4377 80.5511 33.1566 80.4553 33.9474C80.3834 34.7143 80.3354 35.4692 80.3115 36.212L79.952 36.6434C79.952 36.6434 79.6045 36.7632 78.9096 37.0029C78.2146 37.2425 77.268 37.4822 76.0698 37.7218C74.8956 37.9614 73.5655 38.0813 72.0798 38.0813ZM96.2433 38.0813C95.1889 38.0813 94.3501 37.8416 93.7271 37.3623C93.128 36.883 92.7685 36.2001 92.6487 35.3134L92.3611 35.2055C91.9058 35.6848 91.4265 36.1402 90.9233 36.5715C90.42 36.9789 89.9527 37.3144 89.5213 37.578C89.09 37.8177 88.7185 37.9375 88.407 37.9375C87.4724 37.9375 86.6336 37.7098 85.8908 37.2545C85.1479 36.7992 84.5607 36.1761 84.1294 35.3853C83.698 34.5945 83.4823 33.7078 83.4823 32.7252C83.4823 31.9824 83.6741 31.3473 84.0575 30.8201C84.4649 30.2689 84.9681 29.9094 85.5672 29.7417L92.5049 28.1241L92.5408 27.2614C92.5408 26.2309 92.2653 25.4281 91.7141 24.853C91.1869 24.2778 90.432 23.9903 89.4494 23.9903C88.7784 23.9903 88.0595 24.158 87.2927 24.4935C86.5258 24.8051 85.8428 25.2005 85.2437 25.6797L84.9202 25.536L84.3091 23.3792C85.0041 22.9718 85.7829 22.5644 86.6456 22.157C87.5083 21.7256 88.3231 21.3662 89.09 21.0786C89.8808 20.791 90.4799 20.6473 90.8873 20.6473C92.2772 20.6473 93.4155 20.8629 94.3022 21.2943C95.1889 21.7256 95.8359 22.3128 96.2433 23.0557C96.6507 23.7746 96.8544 24.6014 96.8544 25.536C96.8544 25.8475 96.8185 26.3268 96.7466 26.9738C96.6747 27.6209 96.5908 28.3278 96.4949 29.0947C96.3991 29.8615 96.3152 30.5924 96.2433 31.2874C96.1714 31.9824 96.1355 32.5335 96.1355 32.9409C96.1355 33.3962 96.2433 33.7557 96.459 34.0193C96.6986 34.2829 97.0222 34.4147 97.4296 34.4147C97.7411 34.4147 98.0526 34.3428 98.3642 34.199C98.6997 34.0553 98.9633 33.9235 99.155 33.8036L99.6942 34.5585C99.4545 34.9659 99.143 35.4332 98.7596 35.9604C98.3761 36.4637 97.9687 36.919 97.5374 37.3264C97.106 37.7098 96.6747 37.9614 96.2433 38.0813ZM89.737 34.5226C90.0965 34.5226 90.5159 34.4267 90.9951 34.235C91.4984 34.0193 91.9417 33.7677 92.3252 33.4801L92.433 30.0652L88.5867 31.1436C88.0116 31.3114 87.724 31.7068 87.724 32.3298C87.724 32.9529 87.9038 33.4801 88.2632 33.9115C88.6466 34.3189 89.1379 34.5226 89.737 34.5226ZM92.5768 18.814C91.4744 17.9752 90.408 17.2084 89.3776 16.5134C88.3471 15.8184 87.4964 15.2553 86.8254 14.8239C86.1783 14.3926 85.8548 14.1769 85.8548 14.1769L85.7829 13.6736L87.6881 11.2293L88.1913 11.1933C88.1913 11.1933 88.3591 11.3731 88.6946 11.7325C89.0301 12.092 89.4854 12.5713 90.0605 13.1704C90.6357 13.7695 91.2827 14.4405 92.0016 15.1834C92.7206 15.9023 93.4395 16.6093 94.1584 17.3042L93.116 18.6702L92.5768 18.814ZM107.435 37.9375L107.723 35.565C108.705 35.3973 109.364 35.1097 109.7 34.7023C110.035 34.2949 110.203 33.576 110.203 32.5455V18.814C110.203 18.0471 110.119 17.5319 109.951 17.2683C109.807 17.0047 109.508 16.8729 109.053 16.8729C108.813 16.8729 108.549 16.8849 108.262 16.9088C107.974 16.9328 107.83 16.9448 107.83 16.9448L107.615 16.6572L107.902 14.5364C108.166 14.5364 108.549 14.5483 109.053 14.5723C109.58 14.5723 110.143 14.5723 110.742 14.5723C111.365 14.5723 111.928 14.5723 112.432 14.5723C112.743 14.5723 113.186 14.5723 113.762 14.5723C114.361 14.5483 114.972 14.5244 115.595 14.5004C116.218 14.4765 116.745 14.4645 117.176 14.4645C117.608 14.4405 117.824 14.4285 117.824 14.4285C119.477 14.4285 120.855 14.6202 121.957 15.0037C123.06 15.3631 123.934 15.8784 124.581 16.5494C125.252 17.1964 125.732 17.9273 126.019 18.7421C126.307 19.5569 126.451 20.4076 126.451 21.2943C126.451 22.3727 126.211 23.4031 125.732 24.3857C125.276 25.3682 124.641 26.2429 123.827 27.0098C123.036 27.7527 122.125 28.3518 121.095 28.8071C120.088 29.2384 119.01 29.4541 117.859 29.4541H114.84L114.768 32.186C114.768 33.0727 114.804 33.7437 114.876 34.199C114.972 34.6544 115.14 34.9659 115.379 35.1337C115.643 35.2774 116.002 35.3493 116.458 35.3493C116.769 35.3493 117.117 35.3374 117.5 35.3134C117.883 35.2894 118.075 35.2774 118.075 35.2774L118.183 35.4572L117.859 37.7577C117.859 37.7577 117.692 37.7458 117.356 37.7218C117.021 37.7218 116.601 37.7098 116.098 37.6858C115.619 37.6858 115.128 37.6739 114.624 37.6499C114.145 37.6499 113.738 37.6499 113.402 37.6499C112.947 37.6499 112.384 37.6619 111.713 37.6858C111.042 37.7098 110.383 37.7338 109.736 37.7577C109.089 37.8057 108.537 37.8416 108.082 37.8656C107.651 37.9135 107.435 37.9375 107.435 37.9375ZM118.111 26.7581C120.34 26.2789 121.454 24.6373 121.454 21.8335C121.454 20.2998 121.023 19.1854 120.16 18.4905C119.297 17.7715 117.931 17.4121 116.062 17.4121C115.727 17.4121 115.511 17.448 115.415 17.5199C115.343 17.5678 115.295 17.7356 115.271 18.0232C115.199 19.3172 115.128 20.6832 115.056 22.1211C115.008 23.5349 114.96 24.9249 114.912 26.2908L118.111 26.7581ZM127.607 35.565C128.254 35.4931 128.697 35.3254 128.937 35.0618C129.177 34.7742 129.297 34.2949 129.297 33.6239V16.1539C129.297 15.3871 129.189 14.8599 128.973 14.5723C128.757 14.2847 128.362 14.141 127.787 14.141H126.96L126.816 13.9972L127.032 12.128C127.727 12.0321 128.506 11.9243 129.368 11.8044C130.255 11.6606 131.13 11.5169 131.993 11.3731C132.879 11.2293 133.646 11.0975 134.293 10.9777L134.545 11.6606C134.401 11.8284 134.257 12.4275 134.113 13.458C133.994 14.4884 133.886 15.8784 133.79 17.6278C133.694 19.3532 133.61 21.3901 133.538 23.7386C133.874 23.4031 134.257 23.0557 134.689 22.6962C135.144 22.3367 135.599 22.0012 136.055 21.6897C136.534 21.3782 136.965 21.1265 137.349 20.9348C137.756 20.7431 138.091 20.6473 138.355 20.6473C140.081 20.6473 141.411 21.0546 142.345 21.8694C143.28 22.6602 143.747 23.7986 143.747 25.2843C143.747 25.6438 143.711 26.195 143.639 26.9379C143.567 27.6808 143.483 28.4956 143.388 29.3822C143.316 30.2689 143.244 31.1077 143.172 31.8985C143.1 32.6893 143.064 33.3124 143.064 33.7677C143.064 34.3668 143.148 34.8101 143.316 35.0977C143.483 35.3613 143.783 35.4931 144.214 35.4931C144.334 35.4931 144.502 35.4931 144.718 35.4931C144.957 35.4692 145.149 35.4452 145.293 35.4212L145.365 35.565L145.041 37.7577C144.49 37.7338 143.831 37.7098 143.064 37.6858C142.297 37.6619 141.662 37.6499 141.159 37.6499C140.871 37.6499 140.5 37.6619 140.045 37.6858C139.589 37.7098 139.11 37.7338 138.607 37.7577C138.103 37.8057 137.624 37.8656 137.169 37.9375L137.349 35.7088C137.948 35.589 138.379 35.3733 138.643 35.0618C138.906 34.7263 139.038 34.2709 139.038 33.6958L139.182 27.4771C139.206 26.4226 139.014 25.6438 138.607 25.1406C138.223 24.6133 137.636 24.3497 136.845 24.3497C136.414 24.3497 135.887 24.4935 135.264 24.7811C134.665 25.0447 134.077 25.4042 133.502 25.8595C133.478 26.5544 133.454 27.2734 133.43 28.0163C133.43 28.7592 133.43 29.5979 133.43 30.5325C133.43 31.4671 133.43 32.5695 133.43 33.8396C133.43 34.4387 133.514 34.8581 133.682 35.0977C133.85 35.3374 134.125 35.4572 134.509 35.4572C134.629 35.4572 134.772 35.4572 134.94 35.4572C135.132 35.4332 135.3 35.4212 135.443 35.4212L135.515 35.601L135.156 37.7577C134.629 37.7338 133.982 37.7098 133.215 37.6858C132.448 37.6619 131.801 37.6499 131.274 37.6499C130.746 37.6499 130.099 37.6619 129.333 37.6858C128.59 37.7098 127.907 37.7338 127.284 37.7577L127.607 35.565ZM155.249 38.0813C153.571 38.0813 152.121 37.7458 150.899 37.0748C149.701 36.4038 148.766 35.4452 148.095 34.199C147.448 32.9529 147.125 31.4911 147.125 29.8136C147.125 28.4956 147.341 27.2854 147.772 26.183C148.203 25.0806 148.802 24.1221 149.569 23.3073C150.336 22.4685 151.235 21.8215 152.265 21.3662C153.296 20.8869 154.41 20.6473 155.608 20.6473C159.634 20.6473 161.647 22.6842 161.647 26.7581C161.647 27.1176 161.611 27.4891 161.539 27.8725C161.491 28.2559 161.444 28.5555 161.396 28.7711L160.964 29.2025H151.654C151.702 30.856 152.086 32.1501 152.804 33.0847C153.547 33.9954 154.578 34.4986 155.896 34.5945C157.214 34.6903 158.76 34.3309 160.533 33.5161L160.785 33.6599L161.36 35.4212C160.88 35.7807 160.281 36.1761 159.562 36.6075C158.843 37.0148 158.101 37.3623 157.334 37.6499C156.567 37.9375 155.872 38.0813 155.249 38.0813ZM151.654 27.2254L156.579 26.9379C156.866 26.9139 157.046 26.854 157.118 26.7581C157.214 26.6383 157.262 26.4226 157.262 26.1111C157.262 25.2484 157.07 24.5894 156.687 24.1341C156.303 23.6787 155.74 23.4511 154.997 23.4511C154.063 23.4511 153.296 23.7746 152.697 24.4216C152.121 25.0447 151.774 25.9793 151.654 27.2254ZM151.007 18.5624L150.432 18.4545L149.425 17.0167C150.049 16.3936 150.684 15.7585 151.331 15.1115C151.978 14.4645 152.565 13.8654 153.092 13.3142C153.643 12.763 154.075 12.3197 154.386 11.9842C154.698 11.6247 154.853 11.445 154.853 11.445H155.572C155.572 11.445 155.728 11.6247 156.04 11.9842C156.351 12.3197 156.771 12.763 157.298 13.3142C157.849 13.8654 158.436 14.4645 159.059 15.1115C159.706 15.7585 160.341 16.3936 160.964 17.0167L159.958 18.4545L159.419 18.5624C158.652 17.9393 157.873 17.3641 157.082 16.8369C156.315 16.3097 155.692 15.8784 155.213 15.5429C154.71 15.8784 154.075 16.3097 153.308 16.8369C152.541 17.3641 151.774 17.9393 151.007 18.5624Z" fill="#141212"/>
</svg>
