<svg width="25" height="25" viewBox="0 0 25 25" fill="none" xmlns="http://www.w3.org/2000/svg">
<circle cx="12.4688" cy="12.4165" r="10" fill="#292D32"/>
<path d="M11.2657 13.5598C11.2657 13.0344 11.6667 12.4287 12.4688 11.7425C12.8241 11.4316 13.0627 11.1904 13.1845 11.0188C13.3063 10.8366 13.3672 10.6275 13.3672 10.3917C13.3672 10.1022 13.2759 9.86631 13.0931 9.68405C12.9104 9.50179 12.6819 9.41066 12.4078 9.41066C11.8495 9.41066 11.4281 9.81806 11.1439 10.6329L9.46875 9.86095C9.68195 9.06758 10.0474 8.46183 10.5652 8.0437C11.0931 7.62557 11.7276 7.4165 12.4688 7.4165C13.3215 7.4165 14.0322 7.67917 14.6007 8.20452C15.1794 8.72986 15.4688 9.4053 15.4688 10.2308C15.4688 10.6704 15.3723 11.0671 15.1794 11.4209C14.9865 11.7747 14.6616 12.1607 14.2048 12.5788C13.7479 12.9969 13.4535 13.2864 13.3215 13.4472C13.1997 13.608 13.1388 13.7903 13.1388 13.994C13.1388 14.0476 13.149 14.1602 13.1693 14.3317H11.4332C11.3215 14.0637 11.2657 13.8064 11.2657 13.5598ZM10.9307 16.9209C10.9307 16.5028 11.0677 16.149 11.3418 15.8595C11.616 15.57 11.9561 15.4253 12.3622 15.4253C12.7682 15.4253 13.1033 15.57 13.3672 15.8595C13.6413 16.149 13.7784 16.5028 13.7784 16.9209C13.7784 17.3497 13.6413 17.7089 13.3672 17.9984C13.1033 18.2771 12.7682 18.4165 12.3622 18.4165C11.9561 18.4165 11.616 18.2771 11.3418 17.9984C11.0677 17.7089 10.9307 17.3497 10.9307 16.9209Z" fill="white"/>
</svg>
