<svg width="23" height="24" viewBox="0 0 23 24" fill="none" xmlns="http://www.w3.org/2000/svg">
<path fill-rule="evenodd" clip-rule="evenodd" d="M13.0999 3.86157C14.2063 2.7561 15.9991 2.7561 17.1055 3.86157L17.5038 4.25995C18.6093 5.36636 18.6093 7.1591 17.5038 8.26551L13.4115 12.3579C13.0433 12.7261 12.4448 12.7261 12.0766 12.3579C11.7075 11.9897 11.7075 11.3912 12.0766 11.023L16.169 6.93064C16.5372 6.56152 16.5372 5.96394 16.169 5.59577L15.7696 5.19644C15.4015 4.82826 14.8039 4.82826 14.4348 5.19644L9.12175 10.5095L11.5234 12.9111C11.8916 13.2793 11.8916 13.8778 11.5234 14.246L9.24448 16.5249C8.71299 17.0564 7.99268 17.3547 7.24123 17.3547H4.95478C4.43367 17.3547 4.01074 16.9317 4.01074 16.4106V14.1242C4.01074 13.3727 4.30906 12.6524 4.84055 12.1209L13.0999 3.86157ZM9.52013 13.5785L7.78689 11.8453L6.17542 13.4568C5.99794 13.6333 5.89881 13.874 5.89881 14.1242V15.4666H7.24123C7.49234 15.4666 7.73213 15.3675 7.90866 15.19L9.52013 13.5785ZM4.95478 21.1308C4.43367 21.1308 4.01074 20.7079 4.01074 20.1868C4.01074 19.6657 4.43367 19.2428 4.95478 19.2428H18.1713C18.6924 19.2428 19.1153 19.6657 19.1153 20.1868C19.1153 20.7079 18.6924 21.1308 18.1713 21.1308H4.95478Z" fill="black" fill-opacity="0.8"/>
</svg>
