<svg width="17" height="17" viewBox="0 0 17 17" fill="none" xmlns="http://www.w3.org/2000/svg">
<path d="M2.75542 2.05703C2.75542 1.49691 3.20948 1.04285 3.7696 1.04285H8.42042C8.6894 1.04285 8.94736 1.1497 9.13756 1.33989L16.2368 8.43917C16.6329 8.83524 16.6329 9.47738 16.2368 9.87344L11.586 14.5243C11.1899 14.9203 10.5478 14.9203 10.1517 14.5243L3.05246 7.42499C2.86227 7.23479 2.75542 6.97683 2.75542 6.70785V2.05703ZM6.30505 6.11376C7.14523 6.11376 7.82633 5.43266 7.82633 4.59249C7.82633 3.75231 7.14523 3.07121 6.30505 3.07121C5.46488 3.07121 4.78378 3.75231 4.78378 4.59249C4.78378 5.43266 5.46488 6.11376 6.30505 6.11376Z" fill="black"/>
<path d="M2.03828 7.93208C1.84808 7.74188 1.74123 7.48392 1.74123 7.21495V2.05703C1.18112 2.05703 0.727051 2.51109 0.727051 3.07121V7.72204C0.727051 7.99101 0.833901 8.24898 1.0241 8.43917L8.12338 15.5385C8.51944 15.9345 9.16158 15.9345 9.55765 15.5385L9.60115 15.4949L2.03828 7.93208Z" fill="black"/>
</svg>
