<svg width="30" height="29" viewBox="0 0 30 29" fill="none" xmlns="http://www.w3.org/2000/svg">
<path fill-rule="evenodd" clip-rule="evenodd" d="M23.2007 11.169C23.6998 11.3367 24.1588 11.6127 24.5399 11.9812C25.2043 12.6222 25.5772 13.4926 25.5772 14.4006V21.2449C25.5772 22.1529 25.2043 23.0232 24.5399 23.6643C23.8768 24.3065 22.9764 24.667 22.0371 24.667H10.2367C8.67191 24.667 7.17088 24.0659 6.064 22.997C4.9583 21.927 4.33643 20.476 4.33643 18.9634C4.33643 18.9634 4.33643 8.95714 4.33643 8.69706C4.33643 7.48676 4.83322 6.32666 5.71944 5.47113C6.60447 4.61445 7.80458 4.13422 9.05661 4.13422H19.677C20.6163 4.13422 21.5167 4.49468 22.1799 5.1369C22.8442 5.77798 23.2171 6.64834 23.2171 7.55635V10.9785C23.2171 11.0435 23.2113 11.1062 23.2007 11.169ZM6.69652 8.69706C6.69652 9.95754 7.75266 10.9785 9.05661 10.9785H20.8571V7.55635C20.8571 7.25406 20.7331 6.96318 20.5113 6.74986C20.2906 6.53541 19.9897 6.41564 19.677 6.41564H9.05661C8.43118 6.41564 7.83054 6.65632 7.38802 7.08409C6.9455 7.51186 6.69652 8.09248 6.69652 8.69706ZM6.69652 12.6496V18.9634C6.69652 19.8715 7.06944 20.7418 7.73381 21.3829C8.39699 22.0251 9.29733 22.3856 10.2367 22.3856H22.0371C22.3498 22.3856 22.6507 22.2658 22.8714 22.0514C23.0932 21.838 23.2171 21.5472 23.2171 21.2449V14.4006C23.2171 14.0983 23.0932 13.8074 22.8714 13.5941C22.6507 13.3797 22.3498 13.2599 22.0371 13.2599H9.05661C8.19635 13.2599 7.39038 13.0375 6.69652 12.6496ZM9.05661 9.83777C8.40522 9.83777 7.87656 9.32673 7.87656 8.69706C7.87656 8.06739 8.40522 7.55635 9.05661 7.55635H18.497C19.1484 7.55635 19.677 8.06739 19.677 8.69706C19.677 9.32673 19.1484 9.83777 18.497 9.83777H9.05661Z" fill="black"/>
<path d="M19.0777 19.5064C20.0553 19.5064 20.8478 18.7404 20.8478 17.7954C20.8478 16.8504 20.0553 16.0843 19.0777 16.0843C18.1001 16.0843 17.3076 16.8504 17.3076 17.7954C17.3076 18.7404 18.1001 19.5064 19.0777 19.5064Z" fill="black"/>
</svg>
