<svg width="29" height="29" viewBox="0 0 29 29" fill="none" xmlns="http://www.w3.org/2000/svg">
<path fill-rule="evenodd" clip-rule="evenodd" d="M12.2047 21.3392C12.1209 22.6735 9.9298 22.5603 9.94111 21.3041V21.2916V19.3574C9.94111 18.1373 10.4255 16.9671 11.2879 16.1047C12.1515 15.2423 13.3206 14.7579 14.5407 14.7579H14.5441C15.7641 14.7579 16.9344 15.2423 17.7968 16.1047C18.6592 16.9671 19.1436 18.1373 19.1436 19.3574V22.4234C19.1436 23.3243 18.786 24.1878 18.1499 24.8239C17.5127 25.4611 16.6491 25.8187 15.7483 25.8187H8.3623C5.46156 25.8187 3.11084 23.4669 3.11084 20.5673V13.3794C3.11084 11.7836 3.83632 10.2749 5.08128 9.2778L11.2619 4.3342C13.1803 2.79951 15.9056 2.79951 17.8228 4.3342L24.0034 9.2778C25.2495 10.2749 25.9739 11.7836 25.9739 13.3794V20.5673C25.9739 22.7109 24.6893 24.5557 22.8479 25.3705C22.2764 25.6241 21.6075 25.3649 21.3539 24.7945C21.1016 24.2229 21.3596 23.554 21.9312 23.3016C22.9792 22.8365 23.7103 21.7873 23.7103 20.5673V13.3794C23.7103 12.4717 23.2983 11.6127 22.5887 11.0456L16.4092 6.10203C15.3182 5.2283 13.7677 5.2283 12.6755 6.10203L6.496 11.0456C5.78751 11.6127 5.37439 12.4717 5.37439 13.3794V20.5673C5.37439 22.2174 6.71217 23.5552 8.3623 23.5552H15.7483C16.0482 23.5552 16.3368 23.4363 16.5484 23.2236C16.7612 23.0119 16.88 22.7233 16.88 22.4234V19.3574C16.88 18.7372 16.6344 18.143 16.1965 17.705C15.7585 17.267 15.1643 17.0214 14.5441 17.0214H14.5407C13.9216 17.0214 13.3274 17.267 12.8894 17.705C12.4514 18.143 12.2047 18.7372 12.2047 19.3574V21.3392Z" fill="#090909"/>
</svg>
