<svg width="30" height="29" viewBox="0 0 30 29" fill="none" xmlns="http://www.w3.org/2000/svg">
<path fill-rule="evenodd" clip-rule="evenodd" d="M16.4847 4.6583L24.2907 7.91167C25.3291 8.34475 25.9179 9.44928 25.6973 10.5526C25.4766 11.656 24.5078 12.4501 23.3832 12.4501H6.86258C5.738 12.4501 4.76918 11.656 4.54851 10.5526C4.32784 9.44928 4.91669 8.34475 5.95513 7.91167L13.7611 4.6583C14.6332 4.29603 15.6126 4.29603 16.4847 4.6583ZM6.86258 10.09H23.3832L15.5772 6.83783C15.2857 6.71628 14.9601 6.71628 14.6686 6.83783L6.86258 10.09ZM5.68253 25.4306C5.03115 25.4306 4.50249 24.902 4.50249 24.2506C4.50249 23.5992 5.03115 23.0705 5.68253 23.0705H24.5633C25.2146 23.0705 25.7433 23.5992 25.7433 24.2506C25.7433 24.902 25.2146 25.4306 24.5633 25.4306H5.68253ZM11.5828 14.8102C11.5828 14.1588 12.1114 13.6302 12.7628 13.6302C13.4142 13.6302 13.9428 14.1588 13.9428 14.8102V20.7105C13.9428 21.3618 13.4142 21.8905 12.7628 21.8905C12.1114 21.8905 11.5828 21.3618 11.5828 20.7105V14.8102ZM16.3029 14.8102C16.3029 14.1588 16.8316 13.6302 17.483 13.6302C18.1344 13.6302 18.663 14.1588 18.663 14.8102V20.7105C18.663 21.3618 18.1344 21.8905 17.483 21.8905C16.8316 21.8905 16.3029 21.3618 16.3029 20.7105V14.8102ZM21.0231 14.8102C21.0231 14.1588 21.5518 13.6302 22.2032 13.6302C22.8545 13.6302 23.3832 14.1588 23.3832 14.8102V20.7105C23.3832 21.3618 22.8545 21.8905 22.2032 21.8905C21.5518 21.8905 21.0231 21.3618 21.0231 20.7105V14.8102ZM6.86258 14.8102C6.86258 14.1588 7.39124 13.6302 8.04262 13.6302C8.69401 13.6302 9.22267 14.1588 9.22267 14.8102V20.7105C9.22267 21.3618 8.69401 21.8905 8.04262 21.8905C7.39124 21.8905 6.86258 21.3618 6.86258 20.7105V14.8102Z" fill="black"/>
</svg>
