<svg width="28" height="29" viewBox="0 0 28 29" fill="none" xmlns="http://www.w3.org/2000/svg">
<path fill-rule="evenodd" clip-rule="evenodd" d="M6.84839 10.0882V8.84207C6.84839 5.71723 9.38244 3.18319 12.5073 3.18319H19.2979C22.4228 3.18319 24.9568 5.71723 24.9568 8.84207V20.1598C24.9568 21.6606 24.3604 23.1002 23.2999 24.1618C22.2383 25.2223 20.7987 25.8187 19.2979 25.8187H7.98017C6.47944 25.8187 5.03982 25.2223 3.97821 24.1618C2.91774 23.1002 2.32129 21.6606 2.32129 20.1598V15.6327C2.32129 14.132 2.91774 12.6924 3.97821 11.6308C4.76933 10.8408 5.76981 10.3089 6.84839 10.0882ZM6.84839 12.4321C6.37531 12.5984 5.94071 12.8701 5.57967 13.2322C4.94248 13.8683 4.58484 14.7318 4.58484 15.6327V20.1598C4.58484 21.0607 4.94248 21.9243 5.57967 22.5603C6.21573 23.1975 7.07928 23.5552 7.98017 23.5552H19.2979C20.1988 23.5552 21.0624 23.1975 21.6984 22.5603C22.3356 21.9243 22.6933 21.0607 22.6933 20.1598V8.84207C22.6933 6.96671 21.1733 5.44674 19.2979 5.44674H12.5073C10.6319 5.44674 9.11195 6.96671 9.11195 8.84207V19.0281C9.11195 19.6528 8.60491 20.1598 7.98017 20.1598C7.35543 20.1598 6.84839 19.6528 6.84839 19.0281V12.4321ZM16.8454 15.6327C16.2206 15.6327 15.7136 15.1257 15.7136 14.5009C15.7136 13.8762 16.2206 13.3692 16.8454 13.3692H19.2979C19.9227 13.3692 20.4297 13.8762 20.4297 14.5009C20.4297 15.1257 19.9227 15.6327 19.2979 15.6327H16.8454ZM12.5073 19.0281C11.8825 19.0281 11.3755 18.521 11.3755 17.8963C11.3755 17.2715 11.8825 16.7645 12.5073 16.7645H14.9598C15.5846 16.7645 16.0916 17.2715 16.0916 17.8963C16.0916 18.521 15.5846 19.0281 14.9598 19.0281H12.5073ZM12.5073 15.6327C11.8825 15.6327 11.3755 15.1257 11.3755 14.5009C11.3755 13.8762 11.8825 13.3692 12.5073 13.3692H13.6391C14.2638 13.3692 14.7708 13.8762 14.7708 14.5009C14.7708 15.1257 14.2638 15.6327 13.6391 15.6327H12.5073ZM18.1662 19.0281C17.5414 19.0281 17.0344 18.521 17.0344 17.8963C17.0344 17.2715 17.5414 16.7645 18.1662 16.7645H19.2979C19.9227 16.7645 20.4297 17.2715 20.4297 17.8963C20.4297 18.521 19.9227 19.0281 19.2979 19.0281H18.1662ZM12.5073 11.1056C11.8825 11.1056 11.3755 10.5986 11.3755 9.97384C11.3755 9.3491 11.8825 8.84207 12.5073 8.84207H19.2979C19.9227 8.84207 20.4297 9.3491 20.4297 9.97384C20.4297 10.5986 19.9227 11.1056 19.2979 11.1056H12.5073Z" fill="#090909"/>
</svg>
