<svg width="28" height="29" viewBox="0 0 28 29" fill="none" xmlns="http://www.w3.org/2000/svg">
<path fill-rule="evenodd" clip-rule="evenodd" d="M6.33616 12.5582L8.81378 14.6995C9.76817 15.5232 10.1871 16.8077 9.90266 18.0367L9.16245 21.2215L12.0161 19.5198C13.0871 18.8817 14.4223 18.8817 15.4934 19.5198L18.347 21.2215L17.6068 18.0367C17.3224 16.8077 17.7413 15.5232 18.6957 14.6995L21.1733 12.5582L17.8781 12.271C16.631 12.1623 15.5445 11.3752 15.0519 10.2242C14.8067 9.6499 15.0733 8.9834 15.6481 8.7376C16.2217 8.4918 16.888 8.75887 17.1332 9.33319C17.2974 9.71726 17.6592 9.97961 18.0757 10.0162L23.1166 10.4558L23.5522 10.5598L23.933 10.7808L24.234 11.1022L24.4328 11.5041L24.5066 11.9472L24.4506 12.3833L24.2721 12.7851L23.9794 13.1254L20.1749 16.4118C19.8571 16.6872 19.7167 17.115 19.8119 17.525L20.9448 22.4033L20.9805 22.85L20.8889 23.279L20.6783 23.663L20.3593 23.9774L19.9619 24.1853L19.5323 24.2692L19.0955 24.2267L18.6814 24.0553L14.3343 21.465C13.9773 21.2511 13.5322 21.2511 13.1752 21.465L8.82805 24.0553L8.41394 24.2267L7.97719 24.2692L7.54761 24.1853L7.15016 23.9774L6.83123 23.663L6.62059 23.279L6.52897 22.85L6.56467 22.4033L7.69756 17.525C7.79276 17.115 7.65235 16.6872 7.33461 16.4118L3.5301 13.1254L3.23735 12.7851L3.05886 12.3833L3.00293 11.9472L3.07672 11.5041L3.27545 11.1022L3.57651 10.7808L3.95733 10.5598L4.39287 10.4558L9.43377 10.0151C9.85028 9.9796 10.2121 9.71726 10.3763 9.33319C10.9535 7.98601 11.9757 5.53741 12.4731 4.37339C12.7194 3.79906 13.3846 3.53199 13.9594 3.77779C14.533 4.02359 14.7996 4.68894 14.5544 5.26327C14.0558 6.42728 13.0336 8.87586 12.4576 10.2242C11.965 11.3752 10.8785 12.1623 9.63134 12.271L6.33616 12.5582Z" fill="black"/>
</svg>
