<svg width="28" height="29" viewBox="0 0 28 29" fill="none" xmlns="http://www.w3.org/2000/svg">
<path fill-rule="evenodd" clip-rule="evenodd" d="M6.35443 17.1652V13.3669C6.35443 11.2663 7.18856 9.25177 8.67458 7.76688C9.89124 6.55022 11.4621 5.77043 13.1451 5.52823V4.31496C13.1451 3.69022 13.6521 3.18319 14.2769 3.18319C14.9016 3.18319 15.4086 3.69022 15.4086 4.31496V5.52823C17.0916 5.77043 18.6625 6.55022 19.8792 7.76688C21.3652 9.25177 22.1993 11.2663 22.1993 13.3669V17.181C22.8761 17.9812 23.3311 19.0552 23.3311 20.1598V21.2769L22.1993 22.4234H12.3155C12.414 22.5931 12.5339 22.7516 12.6754 22.8931C13.0998 23.3163 13.6748 23.5552 14.2746 23.5552H14.2791C14.879 23.5552 15.4539 23.3163 15.8783 22.8931C16.3197 22.4517 17.0373 22.4517 17.4787 22.8931C17.92 23.3345 17.92 24.052 17.4787 24.4934C16.6298 25.3422 15.4788 25.8187 14.2791 25.8187H14.2746C13.0749 25.8187 11.9239 25.3422 11.0751 24.4934C10.4979 23.9162 10.0927 23.1998 9.8935 22.4234H6.35443L5.22266 21.2769V20.1598C5.22266 19.0122 5.65047 17.9631 6.35443 17.1652ZM7.48621 20.1598H21.0675C21.0675 19.5011 20.7348 18.8707 20.2911 18.452C20.0636 18.2381 19.9357 17.9416 19.9357 17.6292V13.3669C19.9357 11.8662 19.3393 10.4277 18.2788 9.36722C17.2183 8.30674 15.7799 7.71029 14.2791 7.71029H14.2746C12.7739 7.71029 11.3354 8.30674 10.2749 9.36722C9.21444 10.4277 8.61799 11.8662 8.61799 13.3669V15.7753C8.98015 15.6825 9.3593 15.6327 9.74976 15.6327H16.5404C17.1652 15.6327 17.6722 16.1398 17.6722 16.7645C17.6722 17.3892 17.1652 17.8963 16.5404 17.8963H9.74976C8.49915 17.8963 7.48621 18.9092 7.48621 20.1598Z" fill="black"/>
</svg>
