<svg width="21" height="21" viewBox="0 0 21 21" fill="none" xmlns="http://www.w3.org/2000/svg">
<path fill-rule="evenodd" clip-rule="evenodd" d="M10.8729 13.9923L7.62807 17.2372C6.91033 17.9549 5.83122 18.1699 4.89348 17.7809C3.95574 17.3928 3.34424 16.4776 3.34424 15.4629V6.95385C3.34424 5.84462 3.78509 4.78056 4.56891 3.9959C5.35357 3.21208 6.41762 2.77124 7.52684 2.77124H14.219C15.3282 2.77124 16.3923 3.21208 17.177 3.9959C17.9608 4.78056 18.4016 5.84462 18.4016 6.95385V15.4629C18.4016 16.4776 17.7901 17.3928 16.8524 17.7809C15.9147 18.1699 14.8355 17.9549 14.1178 17.2372L10.8729 13.9923ZM9.69009 12.8095L6.93542 10.0548C6.60918 9.72859 6.60918 9.19823 6.93542 8.87199C7.26167 8.54575 7.79202 8.54575 8.11827 8.87199L15.3006 16.0544C15.5399 16.2936 15.8996 16.3647 16.2124 16.2351C16.5245 16.1062 16.7286 15.8009 16.7286 15.4629V6.95385C16.7286 6.28798 16.4642 5.64971 15.9933 5.17958C15.5232 4.70862 14.8849 4.44428 14.219 4.44428H7.52684C6.86097 4.44428 6.22271 4.70862 5.75258 5.17958C5.28162 5.64971 5.01728 6.28798 5.01728 6.95385V15.4629C5.01728 15.8009 5.2214 16.1062 5.53342 16.2351C5.84628 16.3647 6.20598 16.2936 6.44522 16.0544L9.69009 12.8095Z" fill="#EBEBEB"/>
</svg>
