<svg width="40" height="40" viewBox="0 0 40 40" fill="none" xmlns="http://www.w3.org/2000/svg">
<path fill-rule="evenodd" clip-rule="evenodd" d="M18.5928 33.9314C18.5928 33.9314 14.9154 30.8699 11.9742 26.5831C9.92019 23.5866 8.25781 20.0002 8.25781 16.4334C8.25781 10.156 13.3554 5.05835 19.6328 5.05835C25.9102 5.05835 31.0078 10.156 31.0078 16.4334C31.0078 20.0002 29.3454 23.5866 27.2914 26.5831C24.3502 30.8699 20.6728 33.9314 20.6728 33.9314C20.0699 34.4335 19.1957 34.4335 18.5928 33.9314ZM19.6328 30.4977C20.8321 29.3651 22.8633 27.2916 24.6102 24.7436C26.3002 22.2801 27.7578 19.3665 27.7578 16.4334C27.7578 11.9484 24.1178 8.30835 19.6328 8.30835C15.1478 8.30835 11.5078 11.9484 11.5078 16.4334C11.5078 19.3665 12.9654 22.2801 14.6554 24.7436C16.4023 27.2916 18.4336 29.3651 19.6328 30.4977ZM19.6328 13.1834C21.4268 13.1834 22.8828 14.6394 22.8828 16.4334C22.8828 18.2274 21.4268 19.6834 19.6328 19.6834C17.8388 19.6834 16.3828 18.2274 16.3828 16.4334C16.3828 14.6394 17.8388 13.1834 19.6328 13.1834Z" fill="black"/>
</svg>
