<svg width="30" height="30" viewBox="0 0 30 30" fill="none" xmlns="http://www.w3.org/2000/svg">
<path fill-rule="evenodd" clip-rule="evenodd" d="M4.41074 23.4181C13.3265 23.4181 22.3819 19.1764 22.4988 10.3209C22.4036 9.68622 22.836 9.08887 23.4706 8.98289C23.5417 8.97085 23.6116 8.96602 23.6802 8.96602C24.3269 8.96602 24.852 9.48752 24.8605 10.1318L26.7826 21.596C26.9572 22.6377 26.6646 23.7023 25.9817 24.5081C25.3001 25.3138 24.298 25.7787 23.243 25.7787H4.41074C3.75919 25.7787 3.23047 25.2499 3.23047 24.5984C3.23047 23.9468 3.75919 23.4181 4.41074 23.4181ZM23.4887 16.2258C21.9171 19.4137 19.1134 21.8188 15.687 23.4181H23.243C23.6043 23.4181 23.9476 23.2592 24.1812 22.9834C24.4136 22.7076 24.5148 22.3427 24.4546 21.9862L23.4887 16.2258ZM9.26185 8.96602C9.43888 5.80221 12.0559 3.28998 15.2498 3.28998C18.5581 3.28998 21.2475 5.98528 21.2475 9.30926C21.2475 11.1507 20.4032 13.0066 19.3458 14.5542C17.8632 16.7268 16.0073 18.2768 16.0073 18.2768C15.569 18.6441 14.9307 18.6441 14.4923 18.2768C14.4923 18.2768 12.6364 16.7268 11.1538 14.5542C10.4842 13.5751 9.90134 12.4719 9.56172 11.3266H8.87163C8.27187 11.3266 7.76001 11.7601 7.66005 12.3514L6.38224 19.9761C6.27505 20.618 5.66566 21.0528 5.02375 20.9444C4.38063 20.8372 3.94708 20.2279 4.05426 19.5859L5.33325 11.9612C5.62229 10.233 7.11931 8.96602 8.87163 8.96602H9.26185ZM15.2498 15.7657C15.8363 15.1876 16.6673 14.2916 17.3971 13.2234C18.1896 12.0612 18.8869 10.6918 18.8869 9.30926C18.8869 7.29079 17.2587 5.65048 15.2498 5.65048C13.241 5.65048 11.6127 7.29079 11.6127 9.30926C11.6127 10.6918 12.31 12.0612 13.1025 13.2234C13.8323 14.2916 14.6633 15.1876 15.2498 15.7657Z" fill="black"/>
</svg>
