<svg width="180" height="68" viewBox="0 0 180 68" fill="none" xmlns="http://www.w3.org/2000/svg">
<circle cx="18.4576" cy="47.2925" r="17.5513" fill="#FFD23D"/>
<circle cx="50.3027" cy="32.1214" r="11.5361" fill="#3570EA"/>
<circle cx="27.216" cy="18.3008" r="8.79315" fill="#ECECEC"/>
<circle cx="44.5347" cy="55.3899" r="5.76807" fill="#E35148"/>
<path d="M88.4119 65.0744C88.4119 65.0744 88.2889 65.058 88.043 65.0252C87.797 64.9924 87.4854 64.9596 87.1082 64.9268C86.7311 64.894 86.3375 64.8612 85.9275 64.8284C85.534 64.7956 85.1814 64.7792 84.8698 64.7792C84.4599 64.7792 84.0335 64.8038 83.5907 64.853C83.1644 64.9022 82.7954 64.9514 82.4838 65.0006C82.1886 65.0498 82.0411 65.0744 82.0411 65.0744L82.1886 63.9429C82.7626 63.8281 83.1808 63.6887 83.4431 63.5248C83.7219 63.3608 83.9023 63.082 83.9843 62.6884C84.0663 62.2949 84.1073 61.7045 84.1073 60.9174V57.3015H80.8358L80.6636 57.1293L80.8358 56.3421H84.1073L84.1319 51.4963C84.1319 50.9716 84.0745 50.619 83.9597 50.4386C83.8449 50.2582 83.5989 50.1681 83.2218 50.1681C83.0742 50.1681 82.8938 50.1763 82.6806 50.1927C82.4838 50.2091 82.3854 50.2173 82.3854 50.2173L82.3362 50.1189L82.5084 49.0365C82.5084 49.0365 82.5986 49.0447 82.779 49.0611C82.9594 49.0611 83.1808 49.0693 83.4431 49.0857C83.7219 49.0857 84.0089 49.0939 84.3041 49.1103C84.5992 49.1103 84.8616 49.1103 85.0912 49.1103C85.37 49.1103 85.7143 49.1103 86.1243 49.1103C86.5507 49.0939 86.9688 49.0775 87.3788 49.0611C87.7888 49.0447 88.1331 49.0365 88.4119 49.0365C88.6907 49.0202 88.8301 49.012 88.8301 49.012C90.4044 49.012 91.7982 49.3317 93.0117 49.9713C94.2416 50.5944 95.201 51.4635 95.8897 52.5787C96.5784 53.6774 96.9228 54.9401 96.9228 56.3667C96.9228 57.5966 96.7014 58.7363 96.2587 59.7859C95.8323 60.8354 95.2256 61.7619 94.4384 62.5654C93.6677 63.3526 92.7658 63.9675 91.7327 64.4103C90.7159 64.853 89.609 65.0744 88.4119 65.0744ZM86.0259 56.3421H90.2076L90.3306 56.5143L90.183 57.3015H86.0013L85.8783 61.5569C85.8783 62.1473 85.9603 62.6064 86.1243 62.9344C86.3047 63.2624 86.6163 63.492 87.059 63.6231C87.5182 63.7543 88.1577 63.8199 88.9777 63.8199C90.7487 63.8199 92.1426 63.2132 93.1593 61.9997C94.176 60.7698 94.6844 59.0889 94.6844 56.9571C94.6844 55.514 94.3892 54.2923 93.7989 53.292C93.2249 52.2917 92.3722 51.5291 91.2407 51.0044C90.1256 50.4796 88.7563 50.2173 87.1328 50.2173C86.7885 50.2173 86.5589 50.2501 86.4441 50.3156C86.3293 50.3812 86.2637 50.5288 86.2473 50.7584L86.0259 56.3421ZM99.0602 65.0744L99.1585 64.0659C99.6505 63.9347 100.003 63.7461 100.216 63.5002C100.429 63.2378 100.536 62.8934 100.536 62.467V56.2192C100.536 55.76 100.462 55.4238 100.315 55.2106C100.167 54.9975 99.9375 54.8909 99.6259 54.8909C99.4947 54.8909 99.3553 54.9073 99.2077 54.9401C99.0766 54.9729 99.011 54.9893 99.011 54.9893L99.1094 54.0791C99.5193 54.0135 99.9293 53.9397 100.339 53.8578C100.766 53.7758 101.151 53.702 101.495 53.6364C101.84 53.5544 102.119 53.4888 102.332 53.4396C102.545 53.3904 102.651 53.3658 102.651 53.3658L102.774 53.661C102.709 53.825 102.635 54.1939 102.553 54.7679C102.487 55.3254 102.43 56.0142 102.381 56.8341C102.332 57.6376 102.291 58.5232 102.258 59.4907C102.225 60.4418 102.209 61.4011 102.209 62.3686C102.209 62.8442 102.274 63.1968 102.405 63.4264C102.537 63.6395 102.758 63.7461 103.07 63.7461C103.217 63.7461 103.398 63.7379 103.611 63.7215C103.824 63.7051 103.931 63.6969 103.931 63.6969L103.98 63.7953L103.783 64.853C103.783 64.853 103.709 64.8448 103.562 64.8284C103.43 64.8284 103.25 64.8202 103.02 64.8038C102.807 64.8038 102.569 64.7956 102.307 64.7792C102.061 64.7792 101.823 64.7792 101.594 64.7792C101.249 64.7792 100.88 64.8038 100.487 64.853C100.093 64.9022 99.7571 64.9514 99.4783 65.0006C99.1995 65.0498 99.0602 65.0744 99.0602 65.0744ZM101.225 50.4632C100.815 50.4632 100.511 50.332 100.315 50.0697C100.118 49.8073 100.019 49.5203 100.019 49.2087C100.019 48.8152 100.159 48.479 100.438 48.2002C100.716 47.905 101.061 47.7575 101.471 47.7575C101.864 47.7575 102.159 47.8886 102.356 48.151C102.569 48.397 102.676 48.684 102.676 49.012C102.676 49.4055 102.537 49.7499 102.258 50.0451C101.996 50.3238 101.651 50.4632 101.225 50.4632ZM117.766 65.0744C117.766 65.0744 117.643 65.058 117.397 65.0252C117.151 64.9924 116.84 64.9596 116.462 64.9268C116.085 64.894 115.692 64.8612 115.282 64.8284C114.888 64.7956 114.536 64.7792 114.224 64.7792C113.814 64.7792 113.388 64.8038 112.945 64.853C112.519 64.9022 112.15 64.9514 111.838 65.0006C111.543 65.0498 111.395 65.0744 111.395 65.0744L111.543 63.9429C112.117 63.8281 112.535 63.6887 112.797 63.5248C113.076 63.3608 113.257 63.082 113.339 62.6884C113.42 62.2949 113.461 61.7045 113.461 60.9174V57.3015H110.19L110.018 57.1293L110.19 56.3421H113.461L113.486 51.4963C113.486 50.9716 113.429 50.619 113.314 50.4386C113.199 50.2582 112.953 50.1681 112.576 50.1681C112.428 50.1681 112.248 50.1763 112.035 50.1927C111.838 50.2091 111.74 50.2173 111.74 50.2173L111.69 50.1189L111.863 49.0365C111.863 49.0365 111.953 49.0447 112.133 49.0611C112.314 49.0611 112.535 49.0693 112.797 49.0857C113.076 49.0857 113.363 49.0939 113.658 49.1103C113.953 49.1103 114.216 49.1103 114.445 49.1103C114.724 49.1103 115.069 49.1103 115.479 49.1103C115.905 49.0939 116.323 49.0775 116.733 49.0611C117.143 49.0447 117.487 49.0365 117.766 49.0365C118.045 49.0202 118.184 49.012 118.184 49.012C119.759 49.012 121.152 49.3317 122.366 49.9713C123.596 50.5944 124.555 51.4635 125.244 52.5787C125.933 53.6774 126.277 54.9401 126.277 56.3667C126.277 57.5966 126.056 58.7363 125.613 59.7859C125.187 60.8354 124.58 61.7619 123.793 62.5654C123.022 63.3526 122.12 63.9675 121.087 64.4103C120.07 64.853 118.963 65.0744 117.766 65.0744ZM115.38 56.3421H119.562L119.685 56.5143L119.537 57.3015H115.356L115.233 61.5569C115.233 62.1473 115.315 62.6064 115.479 62.9344C115.659 63.2624 115.97 63.492 116.413 63.6231C116.872 63.7543 117.512 63.8199 118.332 63.8199C120.103 63.8199 121.497 63.2132 122.514 61.9997C123.53 60.7698 124.039 59.0889 124.039 56.9571C124.039 55.514 123.743 54.2923 123.153 53.292C122.579 52.2917 121.726 51.5291 120.595 51.0044C119.48 50.4796 118.111 50.2173 116.487 50.2173C116.143 50.2173 115.913 50.2501 115.798 50.3156C115.684 50.3812 115.618 50.5288 115.602 50.7584L115.38 56.3421ZM136.482 65.0744C135.827 65.0744 135.31 64.9104 134.933 64.5825C134.572 64.2381 134.359 63.7379 134.293 63.082L134.195 63.0574C133.801 63.451 133.424 63.7953 133.063 64.0905C132.719 64.3693 132.407 64.5907 132.129 64.7546C131.866 64.9022 131.653 64.976 131.489 64.976C130.882 64.976 130.341 64.8448 129.866 64.5825C129.39 64.3201 129.013 63.9593 128.734 63.5002C128.472 63.041 128.341 62.5162 128.341 61.9259C128.341 61.4503 128.455 61.0322 128.685 60.6714C128.931 60.3106 129.251 60.0728 129.644 59.958L134.318 58.679L134.342 57.5966C134.342 56.7767 134.154 56.1372 133.777 55.678C133.4 55.2188 132.867 54.9893 132.178 54.9893C131.719 54.9893 131.235 55.0958 130.727 55.309C130.218 55.5222 129.718 55.8256 129.226 56.2192L129.103 56.1454L128.808 55.0876C129.234 54.8417 129.71 54.5875 130.235 54.3251C130.759 54.0463 131.26 53.8168 131.735 53.6364C132.211 53.456 132.571 53.3658 132.817 53.3658C133.539 53.3658 134.154 53.497 134.662 53.7594C135.171 54.0053 135.556 54.3661 135.818 54.8417C136.097 55.3008 136.237 55.8666 136.237 56.5389C136.237 56.7521 136.212 57.0965 136.163 57.572C136.13 58.0476 136.081 58.5806 136.015 59.1709C135.95 59.7449 135.892 60.3024 135.843 60.8436C135.81 61.3847 135.794 61.8357 135.794 62.1965C135.794 62.5572 135.884 62.836 136.064 63.0328C136.245 63.2296 136.491 63.328 136.802 63.328C137.081 63.328 137.36 63.2624 137.639 63.1312C137.917 62.9836 138.131 62.8442 138.278 62.713L138.623 63.1066C138.491 63.3198 138.311 63.5657 138.081 63.8445C137.868 64.1069 137.622 64.3529 137.343 64.5825C137.081 64.812 136.794 64.976 136.482 65.0744ZM131.907 63.3034C132.219 63.3034 132.58 63.1968 132.99 62.9836C133.416 62.754 133.801 62.467 134.146 62.1227L134.269 59.6137L130.923 60.6222C130.448 60.7698 130.21 61.1142 130.21 61.6553C130.21 62.1145 130.366 62.508 130.677 62.836C131.005 63.1476 131.415 63.3034 131.907 63.3034ZM129.693 51.8161L129.472 51.7915L129.128 51.2504C129.521 50.824 129.915 50.3976 130.308 49.9713C130.718 49.5285 131.087 49.1185 131.415 48.7414C131.76 48.3642 132.03 48.0608 132.227 47.8313C132.424 47.6017 132.522 47.4869 132.522 47.4869H132.867C132.867 47.4869 132.965 47.6017 133.162 47.8313C133.359 48.0608 133.621 48.3642 133.949 48.7414C134.293 49.1185 134.662 49.5285 135.056 49.9713C135.466 50.3976 135.868 50.824 136.261 51.2504L135.917 51.7915L135.695 51.8161C135.121 51.3078 134.556 50.8486 133.998 50.4386C133.457 50.0287 133.022 49.6925 132.694 49.4301C132.35 49.6925 131.907 50.0287 131.366 50.4386C130.841 50.8322 130.284 51.2914 129.693 51.8161ZM141.004 56.2438C141.004 55.8174 140.93 55.4894 140.783 55.2598C140.635 55.0303 140.406 54.9155 140.094 54.9155C139.963 54.9155 139.823 54.9319 139.676 54.9647C139.545 54.9975 139.479 55.0139 139.479 55.0139L139.577 54.1037C139.955 54.0381 140.348 53.9643 140.758 53.8823C141.168 53.8004 141.545 53.7184 141.89 53.6364C142.25 53.5544 142.537 53.4888 142.751 53.4396C142.98 53.3904 143.095 53.3658 143.095 53.3658L143.243 53.661C143.161 53.8741 143.079 54.2431 142.997 54.7679C142.931 55.2762 142.865 55.8748 142.8 56.5635C142.734 57.2523 142.685 57.982 142.652 58.7527C142.619 59.5071 142.603 60.245 142.603 60.9666C142.603 62.5736 143.259 63.3772 144.571 63.3772C145.145 63.3772 145.678 63.2214 146.17 62.9098C146.678 62.5818 147.137 62.2703 147.547 61.9751V56.2684C147.547 55.7764 147.457 55.432 147.277 55.2352C147.096 55.0385 146.776 54.9401 146.317 54.9401C146.252 54.9401 146.137 54.9483 145.973 54.9647C145.809 54.9647 145.727 54.9647 145.727 54.9647L145.825 54.0791C146.268 54.0135 146.711 53.9397 147.154 53.8578C147.596 53.7758 147.998 53.702 148.359 53.6364C148.736 53.5544 149.039 53.4888 149.269 53.4396C149.499 53.3904 149.613 53.3658 149.613 53.3658L149.761 53.661C149.663 53.9069 149.572 54.4563 149.49 55.309C149.408 56.1618 149.343 57.1949 149.294 58.4084C149.244 59.6219 149.22 60.8846 149.22 62.1965C149.22 62.5572 149.31 62.836 149.49 63.0328C149.671 63.2296 149.917 63.328 150.228 63.328C150.491 63.328 150.728 63.2788 150.942 63.1804C151.171 63.0656 151.352 62.959 151.483 62.8606C151.63 62.7622 151.704 62.713 151.704 62.713L152.049 63.1066C152.049 63.1066 151.975 63.205 151.827 63.4018C151.696 63.5985 151.516 63.8281 151.286 64.0905C151.073 64.3529 150.843 64.5825 150.597 64.7792C150.351 64.976 150.122 65.0744 149.909 65.0744C148.58 65.0744 147.851 64.4103 147.719 63.082L147.596 63.0328C146.809 63.6395 146.096 64.1315 145.456 64.5087C144.833 64.8858 144.407 65.0744 144.177 65.0744C143.128 65.0744 142.316 64.8284 141.742 64.3365C141.184 63.8445 140.906 63.1394 140.906 62.2211L141.004 56.2438ZM159.852 59.8843L159.631 59.7859L159.041 56.8341L159.115 56.4897L162.042 54.6203C162.419 54.3579 162.747 54.0545 163.026 53.7102C163.304 53.3658 163.444 52.964 163.444 52.5049C163.444 51.5045 162.985 50.7584 162.066 50.2664C161.148 49.7581 159.943 49.4629 158.45 49.3809L158.401 49.1103L159.213 47.8067L159.557 47.7083C160.574 47.7411 161.492 47.9378 162.312 48.2986C163.149 48.6594 163.813 49.1431 164.305 49.7499C164.813 50.3402 165.067 51.0126 165.067 51.7669C165.067 52.4557 164.944 53.046 164.698 53.538C164.452 54.0135 164.124 54.4317 163.714 54.7925C163.304 55.1368 162.862 55.4648 162.386 55.7764C161.911 56.0716 161.443 56.3831 160.984 56.7111L160.91 56.9325L161.427 59.2693L161.353 59.4661L159.852 59.8843ZM160.492 65.0744C160.033 65.0744 159.688 64.935 159.459 64.6563C159.229 64.3611 159.115 64.0331 159.115 63.6723C159.115 63.246 159.254 62.8852 159.533 62.59C159.811 62.2949 160.18 62.1473 160.64 62.1473C161.099 62.1473 161.443 62.2867 161.673 62.5654C161.919 62.8442 162.042 63.1722 162.042 63.5493C162.042 63.9593 161.902 64.3201 161.624 64.6317C161.345 64.9268 160.968 65.0744 160.492 65.0744Z" fill="#141212"/>
<path d="M76.9718 40.3678C74.6145 40.3678 72.5775 39.881 70.8607 38.9073C69.1696 37.9336 67.8629 36.5372 66.9404 34.718C66.018 32.8987 65.5568 30.7464 65.5568 28.261C65.5568 26.2112 65.8643 24.3663 66.4792 22.7265C67.1198 21.061 68.0294 19.6389 69.2081 18.4602C70.3867 17.2816 71.796 16.372 73.4358 15.7314C75.1013 15.0908 76.959 14.7705 79.0088 14.7705C79.8031 14.7705 80.623 14.8218 81.4686 14.9243C82.3398 15.0268 83.1341 15.1421 83.8515 15.2702C84.569 15.3983 85.1583 15.5136 85.6195 15.6161C86.0807 15.693 86.3113 15.7314 86.3113 15.7314L86.5419 16.2311C86.5419 16.2311 86.4651 16.5513 86.3113 17.1919C86.1832 17.8325 86.0423 18.7037 85.8886 19.8054C85.7348 20.8816 85.6067 22.0987 85.5042 23.4567L81.8529 23.6873C81.8529 23.6873 81.8658 23.4823 81.8914 23.0724C81.917 22.6368 81.9298 22.1756 81.9298 21.6887C81.9298 20.5357 81.5839 19.703 80.8921 19.1905C80.2003 18.678 79.1113 18.4218 77.6252 18.4218C76.2928 18.4218 75.1526 18.7421 74.2045 19.3827C73.2821 20.0232 72.5775 20.9713 72.0906 22.2268C71.6294 23.4823 71.3988 25.0453 71.3988 26.9158C71.3988 29.0169 71.655 30.8105 72.1675 32.2966C72.7056 33.7827 73.4615 34.9229 74.4351 35.7173C75.4088 36.4859 76.5618 36.8703 77.8942 36.8703C79.3035 36.8703 80.4053 36.4475 81.1996 35.6019C81.9939 34.7564 82.5448 33.3856 82.8522 31.4895L86.5419 31.2589C86.5419 31.2589 86.5035 31.4767 86.4266 31.9123C86.3754 32.3478 86.2985 32.9244 86.196 33.6418C86.1192 34.3336 86.0295 35.1023 85.927 35.9479C85.8501 36.7678 85.7989 37.5749 85.7732 38.3692L85.3889 38.8304C85.3889 38.8304 85.0174 38.9585 84.2743 39.2148C83.5312 39.471 82.5191 39.7272 81.238 39.9835C79.9825 40.2397 78.5604 40.3678 76.9718 40.3678ZM102.808 40.3678C101.68 40.3678 100.784 40.1116 100.117 39.5991C99.4768 39.0867 99.0924 38.3564 98.9643 37.4084L98.6569 37.2931C98.17 37.8055 97.6576 38.2924 97.1195 38.7536C96.5814 39.1892 96.0818 39.5479 95.6205 39.8297C95.1593 40.086 94.7622 40.2141 94.4291 40.2141C93.4298 40.2141 92.533 39.9707 91.7387 39.4838C90.9444 38.997 90.3166 38.3308 89.8554 37.4852C89.3942 36.6397 89.1636 35.6916 89.1636 34.6411C89.1636 33.8468 89.3686 33.1678 89.7785 32.6041C90.2141 32.0147 90.7522 31.6304 91.3928 31.451L98.8106 29.7215L98.849 28.7991C98.849 27.6973 98.5544 26.8389 97.965 26.224C97.4013 25.609 96.5942 25.3016 95.5437 25.3016C94.8262 25.3016 94.0575 25.4809 93.2376 25.8396C92.4177 26.1727 91.6874 26.5955 91.0469 27.108L90.7009 26.9542L90.0476 24.6482C90.7906 24.2126 91.6234 23.777 92.5458 23.3414C93.4682 22.8802 94.3394 22.4958 95.1593 22.1884C96.0049 21.8809 96.6455 21.7272 97.081 21.7272C98.5672 21.7272 99.7843 21.9578 100.732 22.419C101.68 22.8802 102.372 23.508 102.808 24.3023C103.243 25.0709 103.461 25.9549 103.461 26.9542C103.461 27.2873 103.423 27.7998 103.346 28.4916C103.269 29.1834 103.179 29.9393 103.077 30.7592C102.974 31.5792 102.885 32.3607 102.808 33.1037C102.731 33.8468 102.692 34.4361 102.692 34.8717C102.692 35.3585 102.808 35.7429 103.038 36.0247C103.295 36.3066 103.641 36.4475 104.076 36.4475C104.409 36.4475 104.742 36.3706 105.075 36.2169C105.434 36.0632 105.716 35.9222 105.921 35.7941L106.497 36.6012C106.241 37.0368 105.908 37.5365 105.498 38.1002C105.088 38.6383 104.653 39.1251 104.191 39.5607C103.73 39.9707 103.269 40.2397 102.808 40.3678ZM95.8511 36.5628C96.2355 36.5628 96.6839 36.4603 97.1963 36.2553C97.7344 36.0247 98.2084 35.7557 98.6184 35.4482L98.7337 31.797L94.6212 32.95C94.0063 33.1293 93.6988 33.5521 93.6988 34.2183C93.6988 34.8845 93.891 35.4482 94.2753 35.9094C94.6853 36.345 95.2106 36.5628 95.8511 36.5628ZM98.8875 19.767C97.7088 18.8702 96.5686 18.0503 95.4668 17.3072C94.365 16.5641 93.4554 15.962 92.738 15.5008C92.0461 15.0396 91.7002 14.809 91.7002 14.809L91.6234 14.2709L93.6604 11.6574L94.1985 11.6189C94.1985 11.6189 94.3778 11.8111 94.7365 12.1954C95.0953 12.5798 95.5821 13.0922 96.1971 13.7328C96.812 14.3734 97.5038 15.0908 98.2725 15.8851C99.0412 16.6538 99.8099 17.4097 100.579 18.1528L99.464 19.6133L98.8875 19.767ZM114.774 40.2141L115.082 37.6774C116.132 37.498 116.837 37.1906 117.195 36.755C117.554 36.3194 117.733 35.5507 117.733 34.4489V19.767C117.733 18.9471 117.644 18.3962 117.464 18.1143C117.311 17.8325 116.99 17.6916 116.504 17.6916C116.247 17.6916 115.966 17.7044 115.658 17.73C115.351 17.7556 115.197 17.7684 115.197 17.7684L114.966 17.4609L115.274 15.1933C115.556 15.1933 115.966 15.2061 116.504 15.2318C117.067 15.2318 117.669 15.2318 118.31 15.2318C118.976 15.2318 119.578 15.2318 120.116 15.2318C120.45 15.2318 120.924 15.2318 121.538 15.2318C122.179 15.2061 122.832 15.1805 123.499 15.1549C124.165 15.1293 124.729 15.1165 125.19 15.1165C125.651 15.0908 125.882 15.078 125.882 15.078C127.65 15.078 129.123 15.283 130.302 15.693C131.48 16.0773 132.415 16.6282 133.107 17.3456C133.825 18.0375 134.337 18.819 134.645 19.6901C134.952 20.5613 135.106 21.4709 135.106 22.419C135.106 23.572 134.85 24.6738 134.337 25.7243C133.85 26.7749 133.171 27.7101 132.3 28.53C131.455 29.3243 130.481 29.9649 129.379 30.4518C128.303 30.913 127.15 31.1436 125.92 31.1436H122.692L122.615 34.0646C122.615 35.0126 122.653 35.7301 122.73 36.2169C122.832 36.7037 123.012 37.0368 123.268 37.2162C123.55 37.3699 123.934 37.4468 124.421 37.4468C124.754 37.4468 125.126 37.434 125.536 37.4084C125.946 37.3827 126.151 37.3699 126.151 37.3699L126.266 37.5621L125.92 40.0219C125.92 40.0219 125.741 40.0091 125.382 39.9835C125.023 39.9835 124.575 39.9707 124.037 39.945C123.524 39.945 122.999 39.9322 122.461 39.9066C121.948 39.9066 121.513 39.9066 121.154 39.9066C120.667 39.9066 120.065 39.9194 119.348 39.945C118.63 39.9707 117.926 39.9963 117.234 40.0219C116.542 40.0731 115.953 40.1116 115.466 40.1372C115.005 40.1884 114.774 40.2141 114.774 40.2141ZM126.189 28.261C128.572 27.7485 129.763 25.9934 129.763 22.9955C129.763 21.3556 129.302 20.1642 128.38 19.4211C127.457 18.6524 125.997 18.2681 123.998 18.2681C123.64 18.2681 123.409 18.3065 123.306 18.3834C123.23 18.4346 123.178 18.614 123.153 18.9215C123.076 20.3051 122.999 21.7656 122.922 23.303C122.871 24.8147 122.82 26.3008 122.768 27.7613L126.189 28.261ZM136.342 37.6774C137.034 37.6005 137.508 37.4212 137.764 37.1393C138.021 36.8318 138.149 36.3194 138.149 35.6019V16.9229C138.149 16.1029 138.033 15.5392 137.803 15.2318C137.572 14.9243 137.149 14.7705 136.534 14.7705H135.65L135.497 14.6168L135.727 12.6182C136.47 12.5157 137.303 12.4004 138.226 12.2723C139.174 12.1186 140.109 11.9648 141.031 11.8111C141.979 11.6574 142.799 11.5164 143.491 11.3883L143.76 12.1186C143.606 12.2979 143.453 12.9385 143.299 14.0403C143.171 15.1421 143.055 16.6282 142.953 18.4987C142.851 20.3435 142.761 22.5215 142.684 25.0325C143.043 24.6738 143.453 24.3023 143.914 23.9179C144.401 23.5336 144.888 23.1749 145.374 22.8418C145.887 22.5087 146.348 22.2396 146.758 22.0346C147.194 21.8297 147.552 21.7272 147.834 21.7272C149.679 21.7272 151.101 22.1627 152.1 23.0339C153.1 23.8795 153.599 25.0966 153.599 26.6852C153.599 27.0695 153.561 27.6589 153.484 28.4532C153.407 29.2475 153.317 30.1187 153.215 31.0667C153.138 32.0147 153.061 32.9115 152.984 33.7571C152.907 34.6027 152.869 35.2689 152.869 35.7557C152.869 36.3963 152.959 36.8703 153.138 37.1778C153.317 37.4596 153.638 37.6005 154.099 37.6005C154.227 37.6005 154.406 37.6005 154.637 37.6005C154.893 37.5749 155.098 37.5493 155.252 37.5237L155.329 37.6774L154.983 40.0219C154.394 39.9963 153.689 39.9707 152.869 39.945C152.049 39.9194 151.37 39.9066 150.832 39.9066C150.525 39.9066 150.127 39.9194 149.641 39.945C149.154 39.9707 148.641 39.9963 148.103 40.0219C147.565 40.0731 147.053 40.1372 146.566 40.2141L146.758 37.8311C147.399 37.703 147.86 37.4724 148.142 37.1393C148.423 36.7806 148.564 36.2938 148.564 35.6788L148.718 29.0297C148.744 27.9023 148.539 27.0695 148.103 26.5314C147.693 25.9677 147.065 25.6859 146.22 25.6859C145.759 25.6859 145.195 25.8396 144.529 26.1471C143.888 26.429 143.26 26.8133 142.646 27.3001C142.62 28.0432 142.594 28.8119 142.569 29.6062C142.569 30.4005 142.569 31.2973 142.569 32.2966C142.569 33.2959 142.569 34.4745 142.569 35.8326C142.569 36.4731 142.658 36.9215 142.838 37.1778C143.017 37.434 143.312 37.5621 143.722 37.5621C143.85 37.5621 144.004 37.5621 144.183 37.5621C144.388 37.5365 144.567 37.5237 144.721 37.5237L144.798 37.7158L144.414 40.0219C143.85 39.9963 143.158 39.9707 142.338 39.945C141.518 39.9194 140.826 39.9066 140.263 39.9066C139.699 39.9066 139.007 39.9194 138.187 39.945C137.393 39.9707 136.663 39.9963 135.996 40.0219L136.342 37.6774ZM165.897 40.3678C164.103 40.3678 162.553 40.0091 161.247 39.2916C159.965 38.5742 158.966 37.5493 158.249 36.2169C157.557 34.8845 157.211 33.3215 157.211 31.5279C157.211 30.1187 157.442 28.8247 157.903 27.646C158.364 26.4674 159.005 25.4425 159.824 24.5713C160.644 23.6745 161.605 22.9827 162.707 22.4958C163.809 21.9834 165 21.7272 166.281 21.7272C170.586 21.7272 172.738 23.9051 172.738 28.261C172.738 28.6453 172.7 29.0425 172.623 29.4525C172.572 29.8624 172.521 30.1827 172.469 30.4133L172.008 30.8745H162.054C162.105 32.6425 162.515 34.0261 163.284 35.0254C164.078 35.9991 165.18 36.5372 166.589 36.6397C167.998 36.7422 169.651 36.3578 171.547 35.4866L171.816 35.6404L172.431 37.5237C171.918 37.908 171.278 38.3308 170.509 38.792C169.741 39.2276 168.946 39.5991 168.126 39.9066C167.306 40.2141 166.563 40.3678 165.897 40.3678ZM162.054 28.7606L167.319 28.4532C167.627 28.4275 167.819 28.3635 167.896 28.261C167.998 28.1329 168.049 27.9023 168.049 27.5692C168.049 26.6468 167.844 25.9421 167.434 25.4553C167.024 24.9685 166.422 24.725 165.628 24.725C164.629 24.725 163.809 25.0709 163.168 25.7628C162.553 26.429 162.182 27.4283 162.054 28.7606ZM161.362 19.498L160.747 19.3827L159.671 17.8453C160.337 17.1791 161.016 16.5001 161.708 15.8083C162.4 15.1165 163.027 14.4759 163.591 13.8866C164.18 13.2972 164.642 12.8232 164.975 12.4645C165.308 12.0801 165.474 11.888 165.474 11.888H166.243C166.243 11.888 166.41 12.0801 166.743 12.4645C167.076 12.8232 167.524 13.2972 168.088 13.8866C168.677 14.4759 169.305 15.1165 169.971 15.8083C170.663 16.5001 171.342 17.1791 172.008 17.8453L170.932 19.3827L170.355 19.498C169.536 18.8318 168.703 18.2168 167.857 17.6531C167.037 17.0894 166.371 16.6282 165.859 16.2695C165.321 16.6282 164.642 17.0894 163.822 17.6531C163.002 18.2168 162.182 18.8318 161.362 19.498Z" fill="#141212"/>
</svg>
