<svg width="17" height="17" viewBox="0 0 17 17" fill="none" xmlns="http://www.w3.org/2000/svg">
<path d="M2.2483 15.4365C1.96824 15.4365 1.74121 15.6635 1.74121 15.9436C1.74121 16.2236 1.96824 16.4507 2.2483 16.4507H15.4327C15.7127 16.4507 15.9398 16.2236 15.9398 15.9436C15.9398 15.6635 15.7127 15.4365 15.4327 15.4365H13.9114V2.75921C13.9114 1.91904 13.2303 1.23794 12.3901 1.23794H11.883V0.730849C11.883 0.583848 11.8192 0.444081 11.7082 0.347765C11.5971 0.25145 11.4498 0.208066 11.3042 0.228855L4.20495 1.24304C3.95514 1.27873 3.76958 1.49268 3.76958 1.74503V15.4365H2.2483ZM11.883 2.25212H12.3901C12.6702 2.25212 12.8972 2.47916 12.8972 2.75921V15.4365H11.883V2.25212ZM9.34758 10.3656C9.06752 10.3656 8.84049 9.91151 8.84049 9.3514C8.84049 8.79128 9.06752 8.33721 9.34758 8.33721C9.62764 8.33721 9.85467 8.79128 9.85467 9.3514C9.85467 9.91151 9.62764 10.3656 9.34758 10.3656Z" fill="black"/>
</svg>
