<svg width="27" height="29" viewBox="0 0 27 29" fill="none" xmlns="http://www.w3.org/2000/svg">
<path fill-rule="evenodd" clip-rule="evenodd" d="M23.6383 24.4203C24.0605 24.8793 24.0637 25.6263 23.6458 26.09C23.2268 26.5526 22.5449 26.5561 22.1216 26.0983C22.1216 26.0983 21.2835 25.1873 19.8067 23.5777C19.2487 22.9688 18.3815 22.8614 17.718 23.3146C16.2282 24.3955 14.4357 24.982 12.5194 24.982C6.94164 24.982 2.41309 20.0211 2.41309 13.9096C2.41309 7.79934 6.94164 2.83842 12.5194 2.83842C18.0982 2.83842 22.6268 7.79934 22.6268 13.9096C22.6268 15.2077 22.4221 16.4538 22.0472 17.6102C21.848 18.225 21.2318 18.546 20.6716 18.3277C20.1115 18.1106 19.8174 17.4344 20.0167 16.8208C20.3119 15.911 20.4724 14.9303 20.4724 13.9096C20.4724 9.10211 16.909 5.19851 12.5194 5.19851C8.13087 5.19851 4.56749 9.10211 4.56749 13.9096C4.56749 18.7183 8.13087 22.6219 12.5194 22.6219C13.9995 22.6219 15.3858 22.1782 16.5352 21.3415C16.5417 21.3368 16.5492 21.3309 16.5567 21.3262C18.0756 20.2771 20.0544 20.5179 21.3266 21.9044C22.8002 23.5128 23.6383 24.4203 23.6383 24.4203ZM12.6465 9.91869C12.0519 9.91869 11.5693 9.39003 11.5693 8.73865C11.5693 8.08726 12.0519 7.5586 12.6465 7.5586C15.9169 7.5586 18.5711 10.4662 18.5711 14.0489C18.5711 17.6315 15.9169 20.5391 12.6465 20.5391C9.37611 20.5391 6.72189 17.6315 6.72189 14.0489C6.72189 13.3975 7.20448 12.8688 7.79909 12.8688C8.39371 12.8688 8.87629 13.3975 8.87629 14.0489C8.87629 16.3287 10.5653 18.179 12.6465 18.179C14.7276 18.179 16.4167 16.3287 16.4167 14.0489C16.4167 11.769 14.7276 9.91869 12.6465 9.91869Z" fill="black" fill-opacity="0.3"/>
</svg>
