<svg width="21" height="21" viewBox="0 0 21 21" fill="none" xmlns="http://www.w3.org/2000/svg">
<path fill-rule="evenodd" clip-rule="evenodd" d="M9.93063 18.1502C9.93063 18.1502 8.03758 16.5742 6.52348 14.3674C5.46611 12.8249 4.61035 10.9787 4.61035 9.14251C4.61035 5.91103 7.23452 3.28687 10.466 3.28687C13.6975 3.28687 16.3216 5.91103 16.3216 9.14251C16.3216 10.9787 15.4659 12.8249 14.4085 14.3674C12.8944 16.5742 11.0014 18.1502 11.0014 18.1502C10.691 18.4087 10.241 18.4087 9.93063 18.1502ZM10.466 6.63295C9.08072 6.63295 7.95644 7.75723 7.95644 9.14251C7.95644 10.5278 9.08072 11.6521 10.466 11.6521C11.8513 11.6521 12.9756 10.5278 12.9756 9.14251C12.9756 7.75723 11.8513 6.63295 10.466 6.63295Z" fill="black"/>
</svg>
