<svg width="25" height="25" viewBox="0 0 25 25" fill="none" xmlns="http://www.w3.org/2000/svg">
<path d="M21.0686 4.5166V6.7166C21.0686 7.5166 20.5686 8.5166 20.0686 9.0166L15.7686 12.8166C15.1686 13.3166 14.7686 14.3166 14.7686 15.1166V19.4166C14.7686 20.0166 14.3686 20.8166 13.8686 21.1166L12.4686 22.0166C11.1686 22.8166 9.36863 21.9166 9.36863 20.3166V15.0166C9.36863 14.3166 8.96864 13.4166 8.56864 12.9166L8.09864 12.4266C7.78864 12.0966 7.72864 11.5966 7.97864 11.2066L13.0986 2.9866C13.2786 2.6966 13.5986 2.5166 13.9486 2.5166H19.0686C20.1686 2.5166 21.0686 3.4166 21.0686 4.5166Z" fill="#292D32"/>
<path d="M10.8187 4.0466L7.26865 9.7366C6.92865 10.2866 6.14865 10.3666 5.69865 9.8966L4.76865 8.9166C4.26865 8.4166 3.86865 7.5166 3.86865 6.9166V4.6166C3.86865 3.4166 4.76865 2.5166 5.86865 2.5166H9.96865C10.7487 2.5166 11.2287 3.3766 10.8187 4.0466Z" fill="#292D32"/>
</svg>
