<svg width="25" height="25" viewBox="0 0 25 25" fill="none" xmlns="http://www.w3.org/2000/svg">
<path d="M16.4688 4.6665C16.4688 5.9065 15.4587 6.9165 14.2188 6.9165H10.7188C10.0987 6.9165 9.53875 6.6665 9.12875 6.2565C8.71875 5.8465 8.46875 5.2865 8.46875 4.6665C8.46875 3.4265 9.47875 2.4165 10.7188 2.4165H14.2188C14.8387 2.4165 15.3988 2.6665 15.8088 3.0765C16.2188 3.4865 16.4688 4.0465 16.4688 4.6665Z" fill="#292D32"/>
<path d="M19.2987 5.44671C19.0688 5.25671 18.8087 5.10671 18.5287 4.99671C18.2387 4.88671 17.9488 5.11671 17.8888 5.41671C17.5487 7.12671 16.0387 8.41671 14.2188 8.41671H10.7188C9.71875 8.41671 8.77875 8.02671 8.06875 7.31671C7.54875 6.79671 7.18875 6.13671 7.04875 5.42671C6.98875 5.12671 6.68875 4.88671 6.39875 5.00671C5.23875 5.47671 4.46875 6.53671 4.46875 8.66671V18.4167C4.46875 21.4167 6.25875 22.4167 8.46875 22.4167H16.4688C18.6788 22.4167 20.4688 21.4167 20.4688 18.4167V8.66671C20.4688 7.03671 20.0188 6.03671 19.2987 5.44671ZM8.46875 12.6667H12.4688C12.8787 12.6667 13.2188 13.0067 13.2188 13.4167C13.2188 13.8267 12.8787 14.1667 12.4688 14.1667H8.46875C8.05875 14.1667 7.71875 13.8267 7.71875 13.4167C7.71875 13.0067 8.05875 12.6667 8.46875 12.6667ZM16.4688 18.1667H8.46875C8.05875 18.1667 7.71875 17.8267 7.71875 17.4167C7.71875 17.0067 8.05875 16.6667 8.46875 16.6667H16.4688C16.8787 16.6667 17.2188 17.0067 17.2188 17.4167C17.2188 17.8267 16.8787 18.1667 16.4688 18.1667Z" fill="#292D32"/>
</svg>
