<svg width="25" height="25" viewBox="0 0 25 25" fill="none" xmlns="http://www.w3.org/2000/svg">
<path d="M20.8288 13.1466C20.4588 13.1466 20.1488 12.8666 20.1088 12.4966C19.8688 10.2966 18.6888 8.31658 16.8688 7.05658C16.5388 6.82658 16.4588 6.37658 16.6888 6.04658C16.9188 5.71658 17.3688 5.63658 17.6988 5.86658C19.8688 7.37658 21.2688 9.73658 21.5588 12.3466C21.5988 12.7466 21.3088 13.1066 20.9088 13.1466C20.8788 13.1466 20.8588 13.1466 20.8288 13.1466Z" fill="#292D32"/>
<path d="M4.20855 13.1967C4.18855 13.1967 4.15855 13.1967 4.13855 13.1967C3.73855 13.1567 3.44855 12.7967 3.48855 12.3967C3.75855 9.78671 5.13855 7.42671 7.28855 5.90671C7.60855 5.67671 8.06855 5.75671 8.29855 6.07671C8.52855 6.40671 8.44855 6.85671 8.12855 7.08671C6.32855 8.36671 5.15855 10.3467 4.93855 12.5367C4.89855 12.9167 4.57855 13.1967 4.20855 13.1967Z" fill="#292D32"/>
<path d="M16.4588 21.5163C15.2288 22.1063 13.9089 22.4063 12.5289 22.4063C11.0889 22.4063 9.71885 22.0863 8.43885 21.4363C8.07885 21.2663 7.93885 20.8263 8.11885 20.4663C8.28885 20.1063 8.72885 19.9663 9.08885 20.1363C9.71885 20.4563 10.3889 20.6763 11.0689 20.8063C11.9889 20.9863 12.9289 20.9963 13.8489 20.8363C14.5289 20.7163 15.1989 20.5063 15.8189 20.2063C16.1889 20.0363 16.6288 20.1763 16.7888 20.5463C16.9689 20.9063 16.8288 21.3463 16.4588 21.5163Z" fill="#292D32"/>
<path d="M12.5187 2.42627C10.9687 2.42627 9.69873 3.68627 9.69873 5.24627C9.69873 6.80627 10.9587 8.06627 12.5187 8.06627C14.0787 8.06627 15.3387 6.80627 15.3387 5.24627C15.3387 3.68627 14.0787 2.42627 12.5187 2.42627Z" fill="#292D32"/>
<path d="M5.51873 14.2866C3.96873 14.2866 2.69873 15.5466 2.69873 17.1066C2.69873 18.6666 3.95873 19.9266 5.51873 19.9266C7.07873 19.9266 8.33873 18.6666 8.33873 17.1066C8.33873 15.5466 7.06873 14.2866 5.51873 14.2866Z" fill="#292D32"/>
<path d="M19.4186 14.2866C17.8686 14.2866 16.5986 15.5466 16.5986 17.1066C16.5986 18.6666 17.8586 19.9266 19.4186 19.9266C20.9786 19.9266 22.2386 18.6666 22.2386 17.1066C22.2386 15.5466 20.9786 14.2866 19.4186 14.2866Z" fill="#292D32"/>
</svg>
